%TF.GenerationSoftware,KiCad,Pcbnew,(6.0.2)*%
%TF.CreationDate,2024-04-01T09:01:55+02:00*%
%TF.ProjectId,STM32L4_Project,53544d33-324c-4345-9f50-726f6a656374,rev?*%
%TF.SameCoordinates,Original*%
%TF.FileFunction,Paste,Top*%
%TF.FilePolarity,Positive*%
%FSLAX46Y46*%
G04 Gerber Fmt 4.6, Leading zero omitted, Abs format (unit mm)*
G04 Created by KiCad (PCBNEW (6.0.2)) date 2024-04-01 09:01:55*
%MOMM*%
%LPD*%
G01*
G04 APERTURE LIST*
G04 Aperture macros list*
%AMRoundRect*
0 Rectangle with rounded corners*
0 $1 Rounding radius*
0 $2 $3 $4 $5 $6 $7 $8 $9 X,Y pos of 4 corners*
0 Add a 4 corners polygon primitive as box body*
4,1,4,$2,$3,$4,$5,$6,$7,$8,$9,$2,$3,0*
0 Add four circle primitives for the rounded corners*
1,1,$1+$1,$2,$3*
1,1,$1+$1,$4,$5*
1,1,$1+$1,$6,$7*
1,1,$1+$1,$8,$9*
0 Add four rect primitives between the rounded corners*
20,1,$1+$1,$2,$3,$4,$5,0*
20,1,$1+$1,$4,$5,$6,$7,0*
20,1,$1+$1,$6,$7,$8,$9,0*
20,1,$1+$1,$8,$9,$2,$3,0*%
G04 Aperture macros list end*
%ADD10RoundRect,0.225000X-0.225000X-0.250000X0.225000X-0.250000X0.225000X0.250000X-0.225000X0.250000X0*%
%ADD11RoundRect,0.225000X0.250000X-0.225000X0.250000X0.225000X-0.250000X0.225000X-0.250000X-0.225000X0*%
%ADD12RoundRect,0.135000X0.135000X0.185000X-0.135000X0.185000X-0.135000X-0.185000X0.135000X-0.185000X0*%
%ADD13RoundRect,0.140000X-0.170000X0.140000X-0.170000X-0.140000X0.170000X-0.140000X0.170000X0.140000X0*%
%ADD14RoundRect,0.218750X0.381250X-0.218750X0.381250X0.218750X-0.381250X0.218750X-0.381250X-0.218750X0*%
%ADD15RoundRect,0.135000X-0.185000X0.135000X-0.185000X-0.135000X0.185000X-0.135000X0.185000X0.135000X0*%
%ADD16RoundRect,0.135000X0.185000X-0.135000X0.185000X0.135000X-0.185000X0.135000X-0.185000X-0.135000X0*%
%ADD17RoundRect,0.150000X-0.512500X-0.150000X0.512500X-0.150000X0.512500X0.150000X-0.512500X0.150000X0*%
%ADD18RoundRect,0.218750X0.218750X0.256250X-0.218750X0.256250X-0.218750X-0.256250X0.218750X-0.256250X0*%
%ADD19RoundRect,0.225000X-0.250000X0.225000X-0.250000X-0.225000X0.250000X-0.225000X0.250000X0.225000X0*%
%ADD20RoundRect,0.140000X0.170000X-0.140000X0.170000X0.140000X-0.170000X0.140000X-0.170000X-0.140000X0*%
%ADD21RoundRect,0.218750X0.256250X-0.218750X0.256250X0.218750X-0.256250X0.218750X-0.256250X-0.218750X0*%
%ADD22RoundRect,0.232500X-0.232500X-0.232500X0.232500X-0.232500X0.232500X0.232500X-0.232500X0.232500X0*%
%ADD23RoundRect,0.062500X-0.375000X-0.062500X0.375000X-0.062500X0.375000X0.062500X-0.375000X0.062500X0*%
%ADD24RoundRect,0.062500X-0.062500X-0.375000X0.062500X-0.375000X0.062500X0.375000X-0.062500X0.375000X0*%
%ADD25RoundRect,0.150000X-0.825000X-0.150000X0.825000X-0.150000X0.825000X0.150000X-0.825000X0.150000X0*%
%ADD26R,1.380000X0.450000*%
%ADD27R,1.550000X1.425000*%
%ADD28R,1.900000X1.000000*%
%ADD29R,1.900000X1.800000*%
%ADD30R,1.300000X1.650000*%
%ADD31RoundRect,0.140000X0.140000X0.170000X-0.140000X0.170000X-0.140000X-0.170000X0.140000X-0.170000X0*%
%ADD32RoundRect,0.218750X-0.381250X0.218750X-0.381250X-0.218750X0.381250X-0.218750X0.381250X0.218750X0*%
%ADD33RoundRect,0.150000X-0.150000X0.587500X-0.150000X-0.587500X0.150000X-0.587500X0.150000X0.587500X0*%
%ADD34RoundRect,0.135000X-0.135000X-0.185000X0.135000X-0.185000X0.135000X0.185000X-0.135000X0.185000X0*%
G04 APERTURE END LIST*
D10*
%TO.C,C2*%
X75475000Y-49650000D03*
X77025000Y-49650000D03*
%TD*%
D11*
%TO.C,C4*%
X81000000Y-52800000D03*
X81000000Y-51250000D03*
%TD*%
%TO.C,C7*%
X110750000Y-57000000D03*
X110750000Y-55450000D03*
%TD*%
%TO.C,C1*%
X110200000Y-60550000D03*
X110200000Y-59000000D03*
%TD*%
D12*
%TO.C,R4*%
X98950000Y-47800000D03*
X97930000Y-47800000D03*
%TD*%
D13*
%TO.C,C9*%
X94850000Y-49020000D03*
X94850000Y-49980000D03*
%TD*%
D14*
%TO.C,FB2*%
X88600000Y-53062500D03*
X88600000Y-50937500D03*
%TD*%
D15*
%TO.C,R5*%
X101350000Y-55690000D03*
X101350000Y-56710000D03*
%TD*%
D16*
%TO.C,R1*%
X83250000Y-56320000D03*
X83250000Y-55300000D03*
%TD*%
D17*
%TO.C,U3*%
X108862500Y-50800000D03*
X108862500Y-51750000D03*
X108862500Y-52700000D03*
X111137500Y-52700000D03*
X111137500Y-51750000D03*
X111137500Y-50800000D03*
%TD*%
D13*
%TO.C,C10*%
X102600000Y-54020000D03*
X102600000Y-54980000D03*
%TD*%
D18*
%TO.C,D2*%
X116175000Y-60200000D03*
X114600000Y-60200000D03*
%TD*%
%TO.C,D3*%
X99937500Y-56200000D03*
X98362500Y-56200000D03*
%TD*%
D19*
%TO.C,C3*%
X104800000Y-59000000D03*
X104800000Y-60550000D03*
%TD*%
D20*
%TO.C,C11*%
X93800000Y-52480000D03*
X93800000Y-51520000D03*
%TD*%
D13*
%TO.C,C13*%
X100600000Y-44120000D03*
X100600000Y-45080000D03*
%TD*%
D21*
%TO.C,D1*%
X101400000Y-60587500D03*
X101400000Y-59012500D03*
%TD*%
D22*
%TO.C,U4*%
X99900000Y-50700000D03*
X97600000Y-53000000D03*
X99900000Y-53000000D03*
X99900000Y-51850000D03*
X98750000Y-53000000D03*
X97600000Y-51850000D03*
X98750000Y-50700000D03*
X97600000Y-50700000D03*
X98750000Y-51850000D03*
D23*
X96312500Y-50100000D03*
X96312500Y-50600000D03*
X96312500Y-51100000D03*
X96312500Y-51600000D03*
X96312500Y-52100000D03*
X96312500Y-52600000D03*
X96312500Y-53100000D03*
X96312500Y-53600000D03*
D24*
X97000000Y-54287500D03*
X97500000Y-54287500D03*
X98000000Y-54287500D03*
X98500000Y-54287500D03*
X99000000Y-54287500D03*
X99500000Y-54287500D03*
X100000000Y-54287500D03*
X100500000Y-54287500D03*
D23*
X101187500Y-53600000D03*
X101187500Y-53100000D03*
X101187500Y-52600000D03*
X101187500Y-52100000D03*
X101187500Y-51600000D03*
X101187500Y-51100000D03*
X101187500Y-50600000D03*
X101187500Y-50100000D03*
D24*
X100500000Y-49412500D03*
X100000000Y-49412500D03*
X99500000Y-49412500D03*
X99000000Y-49412500D03*
X98500000Y-49412500D03*
X98000000Y-49412500D03*
X97500000Y-49412500D03*
X97000000Y-49412500D03*
%TD*%
D10*
%TO.C,C14*%
X89575000Y-49000000D03*
X91125000Y-49000000D03*
%TD*%
%TO.C,C8*%
X94975000Y-47600000D03*
X96525000Y-47600000D03*
%TD*%
D25*
%TO.C,U2*%
X73775000Y-51345000D03*
X73775000Y-52615000D03*
X73775000Y-53885000D03*
X73775000Y-55155000D03*
X78725000Y-55155000D03*
X78725000Y-53885000D03*
X78725000Y-52615000D03*
X78725000Y-51345000D03*
%TD*%
D12*
%TO.C,R2*%
X102110000Y-62000000D03*
X101090000Y-62000000D03*
%TD*%
D19*
%TO.C,C6*%
X114750000Y-55450000D03*
X114750000Y-57000000D03*
%TD*%
D26*
%TO.C,J1*%
X118690000Y-53500000D03*
X118690000Y-52850000D03*
X118690000Y-52200000D03*
X118690000Y-51550000D03*
X118690000Y-50900000D03*
D27*
X118775000Y-54687500D03*
D28*
X121350000Y-50650000D03*
D27*
X118775000Y-49712500D03*
D29*
X121350000Y-53350000D03*
D30*
X121350000Y-55575000D03*
X121350000Y-48825000D03*
%TD*%
D31*
%TO.C,C5*%
X81730000Y-55300000D03*
X80770000Y-55300000D03*
%TD*%
D32*
%TO.C,FB1*%
X112750000Y-54937500D03*
X112750000Y-57062500D03*
%TD*%
D11*
%TO.C,C12*%
X91850000Y-52775000D03*
X91850000Y-51225000D03*
%TD*%
D21*
%TO.C,D4*%
X93800000Y-57000000D03*
X93800000Y-55425000D03*
%TD*%
D16*
%TO.C,R6*%
X95550000Y-56710000D03*
X95550000Y-55690000D03*
%TD*%
D33*
%TO.C,U1*%
X108450000Y-59312500D03*
X106550000Y-59312500D03*
X107500000Y-61187500D03*
%TD*%
D34*
%TO.C,R3*%
X115380000Y-58787500D03*
X116400000Y-58787500D03*
%TD*%
M02*
