%TF.GenerationSoftware,KiCad,Pcbnew,(6.0.2)*%
%TF.CreationDate,2024-03-31T20:48:55+02:00*%
%TF.ProjectId,STM32L4_Project,53544d33-324c-4345-9f50-726f6a656374,rev?*%
%TF.SameCoordinates,Original*%
%TF.FileFunction,Legend,Top*%
%TF.FilePolarity,Positive*%
%FSLAX46Y46*%
G04 Gerber Fmt 4.6, Leading zero omitted, Abs format (unit mm)*
G04 Created by KiCad (PCBNEW (6.0.2)) date 2024-03-31 20:48:55*
%MOMM*%
%LPD*%
G01*
G04 APERTURE LIST*
G04 Aperture macros list*
%AMRoundRect*
0 Rectangle with rounded corners*
0 $1 Rounding radius*
0 $2 $3 $4 $5 $6 $7 $8 $9 X,Y pos of 4 corners*
0 Add a 4 corners polygon primitive as box body*
4,1,4,$2,$3,$4,$5,$6,$7,$8,$9,$2,$3,0*
0 Add four circle primitives for the rounded corners*
1,1,$1+$1,$2,$3*
1,1,$1+$1,$4,$5*
1,1,$1+$1,$6,$7*
1,1,$1+$1,$8,$9*
0 Add four rect primitives between the rounded corners*
20,1,$1+$1,$2,$3,$4,$5,0*
20,1,$1+$1,$4,$5,$6,$7,0*
20,1,$1+$1,$6,$7,$8,$9,0*
20,1,$1+$1,$8,$9,$2,$3,0*%
G04 Aperture macros list end*
%ADD10C,0.125000*%
%ADD11C,0.150000*%
%ADD12C,0.120000*%
%ADD13RoundRect,0.225000X-0.225000X-0.250000X0.225000X-0.250000X0.225000X0.250000X-0.225000X0.250000X0*%
%ADD14RoundRect,0.225000X0.250000X-0.225000X0.250000X0.225000X-0.250000X0.225000X-0.250000X-0.225000X0*%
%ADD15R,1.700000X1.700000*%
%ADD16O,1.700000X1.700000*%
%ADD17C,2.200000*%
%ADD18RoundRect,0.135000X0.135000X0.185000X-0.135000X0.185000X-0.135000X-0.185000X0.135000X-0.185000X0*%
%ADD19RoundRect,0.140000X-0.170000X0.140000X-0.170000X-0.140000X0.170000X-0.140000X0.170000X0.140000X0*%
%ADD20RoundRect,0.218750X0.381250X-0.218750X0.381250X0.218750X-0.381250X0.218750X-0.381250X-0.218750X0*%
%ADD21RoundRect,0.135000X-0.185000X0.135000X-0.185000X-0.135000X0.185000X-0.135000X0.185000X0.135000X0*%
%ADD22RoundRect,0.135000X0.185000X-0.135000X0.185000X0.135000X-0.185000X0.135000X-0.185000X-0.135000X0*%
%ADD23RoundRect,0.150000X-0.512500X-0.150000X0.512500X-0.150000X0.512500X0.150000X-0.512500X0.150000X0*%
%ADD24RoundRect,0.218750X0.218750X0.256250X-0.218750X0.256250X-0.218750X-0.256250X0.218750X-0.256250X0*%
%ADD25RoundRect,0.225000X-0.250000X0.225000X-0.250000X-0.225000X0.250000X-0.225000X0.250000X0.225000X0*%
%ADD26RoundRect,0.140000X0.170000X-0.140000X0.170000X0.140000X-0.170000X0.140000X-0.170000X-0.140000X0*%
%ADD27RoundRect,0.218750X0.256250X-0.218750X0.256250X0.218750X-0.256250X0.218750X-0.256250X-0.218750X0*%
%ADD28RoundRect,0.062500X-0.375000X-0.062500X0.375000X-0.062500X0.375000X0.062500X-0.375000X0.062500X0*%
%ADD29RoundRect,0.062500X-0.062500X-0.375000X0.062500X-0.375000X0.062500X0.375000X-0.062500X0.375000X0*%
%ADD30R,3.450000X3.450000*%
%ADD31RoundRect,0.150000X-0.825000X-0.150000X0.825000X-0.150000X0.825000X0.150000X-0.825000X0.150000X0*%
%ADD32R,1.380000X0.450000*%
%ADD33R,1.550000X1.425000*%
%ADD34R,1.900000X1.000000*%
%ADD35R,1.900000X1.800000*%
%ADD36R,1.300000X1.650000*%
%ADD37RoundRect,0.140000X0.140000X0.170000X-0.140000X0.170000X-0.140000X-0.170000X0.140000X-0.170000X0*%
%ADD38RoundRect,0.218750X-0.381250X0.218750X-0.381250X-0.218750X0.381250X-0.218750X0.381250X0.218750X0*%
%ADD39C,1.440000*%
%ADD40RoundRect,0.150000X-0.150000X0.587500X-0.150000X-0.587500X0.150000X-0.587500X0.150000X0.587500X0*%
%ADD41RoundRect,0.135000X-0.135000X-0.185000X0.135000X-0.185000X0.135000X0.185000X-0.135000X0.185000X0*%
G04 APERTURE END LIST*
D10*
X56692857Y-67626190D02*
X56692857Y-67126190D01*
X56859523Y-67483333D01*
X57026190Y-67126190D01*
X57026190Y-67626190D01*
X57264285Y-67626190D02*
X57264285Y-67292857D01*
X57264285Y-67126190D02*
X57240476Y-67150000D01*
X57264285Y-67173809D01*
X57288095Y-67150000D01*
X57264285Y-67126190D01*
X57264285Y-67173809D01*
X57478571Y-67602380D02*
X57526190Y-67626190D01*
X57621428Y-67626190D01*
X57669047Y-67602380D01*
X57692857Y-67554761D01*
X57692857Y-67530952D01*
X57669047Y-67483333D01*
X57621428Y-67459523D01*
X57550000Y-67459523D01*
X57502380Y-67435714D01*
X57478571Y-67388095D01*
X57478571Y-67364285D01*
X57502380Y-67316666D01*
X57550000Y-67292857D01*
X57621428Y-67292857D01*
X57669047Y-67316666D01*
X57907142Y-67626190D02*
X57907142Y-67126190D01*
X58121428Y-67626190D02*
X58121428Y-67364285D01*
X58097619Y-67316666D01*
X58050000Y-67292857D01*
X57978571Y-67292857D01*
X57930952Y-67316666D01*
X57907142Y-67340476D01*
X58573809Y-67626190D02*
X58573809Y-67364285D01*
X58550000Y-67316666D01*
X58502380Y-67292857D01*
X58407142Y-67292857D01*
X58359523Y-67316666D01*
X58573809Y-67602380D02*
X58526190Y-67626190D01*
X58407142Y-67626190D01*
X58359523Y-67602380D01*
X58335714Y-67554761D01*
X58335714Y-67507142D01*
X58359523Y-67459523D01*
X58407142Y-67435714D01*
X58526190Y-67435714D01*
X58573809Y-67411904D01*
X58764285Y-67292857D02*
X58883333Y-67626190D01*
X59002380Y-67292857D02*
X58883333Y-67626190D01*
X58835714Y-67745238D01*
X58811904Y-67769047D01*
X58764285Y-67792857D01*
X59573809Y-67626190D02*
X59573809Y-67126190D01*
X59859523Y-67626190D01*
X59859523Y-67126190D01*
X60311904Y-67626190D02*
X60311904Y-67364285D01*
X60288095Y-67316666D01*
X60240476Y-67292857D01*
X60145238Y-67292857D01*
X60097619Y-67316666D01*
X60311904Y-67602380D02*
X60264285Y-67626190D01*
X60145238Y-67626190D01*
X60097619Y-67602380D01*
X60073809Y-67554761D01*
X60073809Y-67507142D01*
X60097619Y-67459523D01*
X60145238Y-67435714D01*
X60264285Y-67435714D01*
X60311904Y-67411904D01*
X60550000Y-67626190D02*
X60550000Y-67292857D01*
X60550000Y-67126190D02*
X60526190Y-67150000D01*
X60550000Y-67173809D01*
X60573809Y-67150000D01*
X60550000Y-67126190D01*
X60550000Y-67173809D01*
X61002380Y-67626190D02*
X61002380Y-67126190D01*
X61002380Y-67602380D02*
X60954761Y-67626190D01*
X60859523Y-67626190D01*
X60811904Y-67602380D01*
X60788095Y-67578571D01*
X60764285Y-67530952D01*
X60764285Y-67388095D01*
X60788095Y-67340476D01*
X60811904Y-67316666D01*
X60859523Y-67292857D01*
X60954761Y-67292857D01*
X61002380Y-67316666D01*
X61311904Y-67626190D02*
X61264285Y-67602380D01*
X61240476Y-67578571D01*
X61216666Y-67530952D01*
X61216666Y-67388095D01*
X61240476Y-67340476D01*
X61264285Y-67316666D01*
X61311904Y-67292857D01*
X61383333Y-67292857D01*
X61430952Y-67316666D01*
X61454761Y-67340476D01*
X61478571Y-67388095D01*
X61478571Y-67530952D01*
X61454761Y-67578571D01*
X61430952Y-67602380D01*
X61383333Y-67626190D01*
X61311904Y-67626190D01*
X61764285Y-67626190D02*
X61716666Y-67602380D01*
X61692857Y-67578571D01*
X61669047Y-67530952D01*
X61669047Y-67388095D01*
X61692857Y-67340476D01*
X61716666Y-67316666D01*
X61764285Y-67292857D01*
X61835714Y-67292857D01*
X61883333Y-67316666D01*
X61907142Y-67340476D01*
X61930952Y-67388095D01*
X61930952Y-67530952D01*
X61907142Y-67578571D01*
X61883333Y-67602380D01*
X61835714Y-67626190D01*
X61764285Y-67626190D01*
D11*
X77300000Y-40000000D02*
X77300000Y-48800000D01*
X77300000Y-65000000D02*
X77300000Y-56100000D01*
X52300000Y-65000000D02*
X53800000Y-65000000D01*
X57600000Y-65000000D02*
X56200000Y-65000000D01*
X52300000Y-40000000D02*
X53800000Y-40000000D01*
X57600000Y-40000000D02*
X56200000Y-40000000D01*
X77300000Y-65000000D02*
X57600000Y-65000000D01*
X77300000Y-40000000D02*
X57600000Y-40000000D01*
X52300000Y-65000000D02*
X52300000Y-40000000D01*
X56300000Y-51161904D02*
X56252380Y-51257142D01*
X56252380Y-51400000D01*
X56300000Y-51542857D01*
X56395238Y-51638095D01*
X56490476Y-51685714D01*
X56680952Y-51733333D01*
X56823809Y-51733333D01*
X57014285Y-51685714D01*
X57109523Y-51638095D01*
X57204761Y-51542857D01*
X57252380Y-51400000D01*
X57252380Y-51304761D01*
X57204761Y-51161904D01*
X57157142Y-51114285D01*
X56823809Y-51114285D01*
X56823809Y-51304761D01*
X57252380Y-50685714D02*
X56252380Y-50685714D01*
X57252380Y-50114285D01*
X56252380Y-50114285D01*
X57252380Y-49638095D02*
X56252380Y-49638095D01*
X56252380Y-49400000D01*
X56300000Y-49257142D01*
X56395238Y-49161904D01*
X56490476Y-49114285D01*
X56680952Y-49066666D01*
X56823809Y-49066666D01*
X57014285Y-49114285D01*
X57109523Y-49161904D01*
X57204761Y-49257142D01*
X57252380Y-49400000D01*
X57252380Y-49638095D01*
X57252380Y-52690476D02*
X56776190Y-53023809D01*
X57252380Y-53261904D02*
X56252380Y-53261904D01*
X56252380Y-52880952D01*
X56300000Y-52785714D01*
X56347619Y-52738095D01*
X56442857Y-52690476D01*
X56585714Y-52690476D01*
X56680952Y-52738095D01*
X56728571Y-52785714D01*
X56776190Y-52880952D01*
X56776190Y-53261904D01*
X56252380Y-55790476D02*
X56252380Y-56266666D01*
X56728571Y-56314285D01*
X56680952Y-56266666D01*
X56633333Y-56171428D01*
X56633333Y-55933333D01*
X56680952Y-55838095D01*
X56728571Y-55790476D01*
X56823809Y-55742857D01*
X57061904Y-55742857D01*
X57157142Y-55790476D01*
X57204761Y-55838095D01*
X57252380Y-55933333D01*
X57252380Y-56171428D01*
X57204761Y-56266666D01*
X57157142Y-56314285D01*
X56252380Y-55457142D02*
X57252380Y-55123809D01*
X56252380Y-54790476D01*
X98252380Y-62566666D02*
X97252380Y-62566666D01*
X97252380Y-62185714D01*
X97300000Y-62090476D01*
X97347619Y-62042857D01*
X97442857Y-61995238D01*
X97585714Y-61995238D01*
X97680952Y-62042857D01*
X97728571Y-62090476D01*
X97776190Y-62185714D01*
X97776190Y-62566666D01*
X97966666Y-61614285D02*
X97966666Y-61138095D01*
X98252380Y-61709523D02*
X97252380Y-61376190D01*
X98252380Y-61042857D01*
X97680952Y-60566666D02*
X97633333Y-60661904D01*
X97585714Y-60709523D01*
X97490476Y-60757142D01*
X97442857Y-60757142D01*
X97347619Y-60709523D01*
X97300000Y-60661904D01*
X97252380Y-60566666D01*
X97252380Y-60376190D01*
X97300000Y-60280952D01*
X97347619Y-60233333D01*
X97442857Y-60185714D01*
X97490476Y-60185714D01*
X97585714Y-60233333D01*
X97633333Y-60280952D01*
X97680952Y-60376190D01*
X97680952Y-60566666D01*
X97728571Y-60661904D01*
X97776190Y-60709523D01*
X97871428Y-60757142D01*
X98061904Y-60757142D01*
X98157142Y-60709523D01*
X98204761Y-60661904D01*
X98252380Y-60566666D01*
X98252380Y-60376190D01*
X98204761Y-60280952D01*
X98157142Y-60233333D01*
X98061904Y-60185714D01*
X97871428Y-60185714D01*
X97776190Y-60233333D01*
X97728571Y-60280952D01*
X97680952Y-60376190D01*
X95852380Y-62566666D02*
X94852380Y-62566666D01*
X94852380Y-62185714D01*
X94900000Y-62090476D01*
X94947619Y-62042857D01*
X95042857Y-61995238D01*
X95185714Y-61995238D01*
X95280952Y-62042857D01*
X95328571Y-62090476D01*
X95376190Y-62185714D01*
X95376190Y-62566666D01*
X95566666Y-61614285D02*
X95566666Y-61138095D01*
X95852380Y-61709523D02*
X94852380Y-61376190D01*
X95852380Y-61042857D01*
X95185714Y-60280952D02*
X95852380Y-60280952D01*
X94804761Y-60519047D02*
X95519047Y-60757142D01*
X95519047Y-60138095D01*
X93252380Y-62566666D02*
X92252380Y-62566666D01*
X92252380Y-62185714D01*
X92300000Y-62090476D01*
X92347619Y-62042857D01*
X92442857Y-61995238D01*
X92585714Y-61995238D01*
X92680952Y-62042857D01*
X92728571Y-62090476D01*
X92776190Y-62185714D01*
X92776190Y-62566666D01*
X92966666Y-61614285D02*
X92966666Y-61138095D01*
X93252380Y-61709523D02*
X92252380Y-61376190D01*
X93252380Y-61042857D01*
X92252380Y-60804761D02*
X92252380Y-60185714D01*
X92633333Y-60519047D01*
X92633333Y-60376190D01*
X92680952Y-60280952D01*
X92728571Y-60233333D01*
X92823809Y-60185714D01*
X93061904Y-60185714D01*
X93157142Y-60233333D01*
X93204761Y-60280952D01*
X93252380Y-60376190D01*
X93252380Y-60661904D01*
X93204761Y-60757142D01*
X93157142Y-60804761D01*
X90366666Y-62580952D02*
X90366666Y-62104761D01*
X90652380Y-62676190D02*
X89652380Y-62342857D01*
X90652380Y-62009523D01*
X90652380Y-61676190D02*
X89652380Y-61676190D01*
X89652380Y-61438095D01*
X89700000Y-61295238D01*
X89795238Y-61200000D01*
X89890476Y-61152380D01*
X90080952Y-61104761D01*
X90223809Y-61104761D01*
X90414285Y-61152380D01*
X90509523Y-61200000D01*
X90604761Y-61295238D01*
X90652380Y-61438095D01*
X90652380Y-61676190D01*
X90557142Y-60104761D02*
X90604761Y-60152380D01*
X90652380Y-60295238D01*
X90652380Y-60390476D01*
X90604761Y-60533333D01*
X90509523Y-60628571D01*
X90414285Y-60676190D01*
X90223809Y-60723809D01*
X90080952Y-60723809D01*
X89890476Y-60676190D01*
X89795238Y-60628571D01*
X89700000Y-60533333D01*
X89652380Y-60390476D01*
X89652380Y-60295238D01*
X89700000Y-60152380D01*
X89747619Y-60104761D01*
X90747619Y-59914285D02*
X90747619Y-59152380D01*
X90652380Y-58914285D02*
X89652380Y-58914285D01*
X90652380Y-58438095D02*
X89652380Y-58438095D01*
X90652380Y-57866666D01*
X89652380Y-57866666D01*
X87300000Y-61961904D02*
X87252380Y-62057142D01*
X87252380Y-62200000D01*
X87300000Y-62342857D01*
X87395238Y-62438095D01*
X87490476Y-62485714D01*
X87680952Y-62533333D01*
X87823809Y-62533333D01*
X88014285Y-62485714D01*
X88109523Y-62438095D01*
X88204761Y-62342857D01*
X88252380Y-62200000D01*
X88252380Y-62104761D01*
X88204761Y-61961904D01*
X88157142Y-61914285D01*
X87823809Y-61914285D01*
X87823809Y-62104761D01*
X88252380Y-61485714D02*
X87252380Y-61485714D01*
X88252380Y-60914285D01*
X87252380Y-60914285D01*
X88252380Y-60438095D02*
X87252380Y-60438095D01*
X87252380Y-60200000D01*
X87300000Y-60057142D01*
X87395238Y-59961904D01*
X87490476Y-59914285D01*
X87680952Y-59866666D01*
X87823809Y-59866666D01*
X88014285Y-59914285D01*
X88109523Y-59961904D01*
X88204761Y-60057142D01*
X88252380Y-60200000D01*
X88252380Y-60438095D01*
X84852380Y-62638095D02*
X84852380Y-62019047D01*
X85233333Y-62352380D01*
X85233333Y-62209523D01*
X85280952Y-62114285D01*
X85328571Y-62066666D01*
X85423809Y-62019047D01*
X85661904Y-62019047D01*
X85757142Y-62066666D01*
X85804761Y-62114285D01*
X85852380Y-62209523D01*
X85852380Y-62495238D01*
X85804761Y-62590476D01*
X85757142Y-62638095D01*
X84852380Y-61733333D02*
X85852380Y-61400000D01*
X84852380Y-61066666D01*
X84852380Y-60828571D02*
X84852380Y-60209523D01*
X85233333Y-60542857D01*
X85233333Y-60400000D01*
X85280952Y-60304761D01*
X85328571Y-60257142D01*
X85423809Y-60209523D01*
X85661904Y-60209523D01*
X85757142Y-60257142D01*
X85804761Y-60304761D01*
X85852380Y-60400000D01*
X85852380Y-60685714D01*
X85804761Y-60780952D01*
X85757142Y-60828571D01*
X82052380Y-61990476D02*
X82052380Y-62466666D01*
X82528571Y-62514285D01*
X82480952Y-62466666D01*
X82433333Y-62371428D01*
X82433333Y-62133333D01*
X82480952Y-62038095D01*
X82528571Y-61990476D01*
X82623809Y-61942857D01*
X82861904Y-61942857D01*
X82957142Y-61990476D01*
X83004761Y-62038095D01*
X83052380Y-62133333D01*
X83052380Y-62371428D01*
X83004761Y-62466666D01*
X82957142Y-62514285D01*
X82052380Y-61657142D02*
X83052380Y-61323809D01*
X82052380Y-60990476D01*
X99900000Y-39961904D02*
X99852380Y-40057142D01*
X99852380Y-40200000D01*
X99900000Y-40342857D01*
X99995238Y-40438095D01*
X100090476Y-40485714D01*
X100280952Y-40533333D01*
X100423809Y-40533333D01*
X100614285Y-40485714D01*
X100709523Y-40438095D01*
X100804761Y-40342857D01*
X100852380Y-40200000D01*
X100852380Y-40104761D01*
X100804761Y-39961904D01*
X100757142Y-39914285D01*
X100423809Y-39914285D01*
X100423809Y-40104761D01*
X100852380Y-39485714D02*
X99852380Y-39485714D01*
X100852380Y-38914285D01*
X99852380Y-38914285D01*
X100852380Y-38438095D02*
X99852380Y-38438095D01*
X99852380Y-38200000D01*
X99900000Y-38057142D01*
X99995238Y-37961904D01*
X100090476Y-37914285D01*
X100280952Y-37866666D01*
X100423809Y-37866666D01*
X100614285Y-37914285D01*
X100709523Y-37961904D01*
X100804761Y-38057142D01*
X100852380Y-38200000D01*
X100852380Y-38438095D01*
X115252380Y-40438095D02*
X115252380Y-39819047D01*
X115633333Y-40152380D01*
X115633333Y-40009523D01*
X115680952Y-39914285D01*
X115728571Y-39866666D01*
X115823809Y-39819047D01*
X116061904Y-39819047D01*
X116157142Y-39866666D01*
X116204761Y-39914285D01*
X116252380Y-40009523D01*
X116252380Y-40295238D01*
X116204761Y-40390476D01*
X116157142Y-40438095D01*
X115252380Y-39533333D02*
X116252380Y-39200000D01*
X115252380Y-38866666D01*
X115252380Y-38628571D02*
X115252380Y-38009523D01*
X115633333Y-38342857D01*
X115633333Y-38200000D01*
X115680952Y-38104761D01*
X115728571Y-38057142D01*
X115823809Y-38009523D01*
X116061904Y-38009523D01*
X116157142Y-38057142D01*
X116204761Y-38104761D01*
X116252380Y-38200000D01*
X116252380Y-38485714D01*
X116204761Y-38580952D01*
X116157142Y-38628571D01*
X113604761Y-47519047D02*
X113652380Y-47376190D01*
X113652380Y-47138095D01*
X113604761Y-47042857D01*
X113557142Y-46995238D01*
X113461904Y-46947619D01*
X113366666Y-46947619D01*
X113271428Y-46995238D01*
X113223809Y-47042857D01*
X113176190Y-47138095D01*
X113128571Y-47328571D01*
X113080952Y-47423809D01*
X113033333Y-47471428D01*
X112938095Y-47519047D01*
X112842857Y-47519047D01*
X112747619Y-47471428D01*
X112700000Y-47423809D01*
X112652380Y-47328571D01*
X112652380Y-47090476D01*
X112700000Y-46947619D01*
X112652380Y-46614285D02*
X113652380Y-46376190D01*
X112938095Y-46185714D01*
X113652380Y-45995238D01*
X112652380Y-45757142D01*
X113652380Y-45376190D02*
X112652380Y-45376190D01*
X112652380Y-45138095D01*
X112700000Y-44995238D01*
X112795238Y-44900000D01*
X112890476Y-44852380D01*
X113080952Y-44804761D01*
X113223809Y-44804761D01*
X113414285Y-44852380D01*
X113509523Y-44900000D01*
X113604761Y-44995238D01*
X113652380Y-45138095D01*
X113652380Y-45376190D01*
X113652380Y-44376190D02*
X112652380Y-44376190D01*
X112652380Y-43709523D02*
X112652380Y-43519047D01*
X112700000Y-43423809D01*
X112795238Y-43328571D01*
X112985714Y-43280952D01*
X113319047Y-43280952D01*
X113509523Y-43328571D01*
X113604761Y-43423809D01*
X113652380Y-43519047D01*
X113652380Y-43709523D01*
X113604761Y-43804761D01*
X113509523Y-43900000D01*
X113319047Y-43947619D01*
X112985714Y-43947619D01*
X112795238Y-43900000D01*
X112700000Y-43804761D01*
X112652380Y-43709523D01*
X111004761Y-48761904D02*
X111052380Y-48619047D01*
X111052380Y-48380952D01*
X111004761Y-48285714D01*
X110957142Y-48238095D01*
X110861904Y-48190476D01*
X110766666Y-48190476D01*
X110671428Y-48238095D01*
X110623809Y-48285714D01*
X110576190Y-48380952D01*
X110528571Y-48571428D01*
X110480952Y-48666666D01*
X110433333Y-48714285D01*
X110338095Y-48761904D01*
X110242857Y-48761904D01*
X110147619Y-48714285D01*
X110100000Y-48666666D01*
X110052380Y-48571428D01*
X110052380Y-48333333D01*
X110100000Y-48190476D01*
X110052380Y-47857142D02*
X111052380Y-47619047D01*
X110338095Y-47428571D01*
X111052380Y-47238095D01*
X110052380Y-47000000D01*
X110957142Y-46047619D02*
X111004761Y-46095238D01*
X111052380Y-46238095D01*
X111052380Y-46333333D01*
X111004761Y-46476190D01*
X110909523Y-46571428D01*
X110814285Y-46619047D01*
X110623809Y-46666666D01*
X110480952Y-46666666D01*
X110290476Y-46619047D01*
X110195238Y-46571428D01*
X110100000Y-46476190D01*
X110052380Y-46333333D01*
X110052380Y-46238095D01*
X110100000Y-46095238D01*
X110147619Y-46047619D01*
X111052380Y-45142857D02*
X111052380Y-45619047D01*
X110052380Y-45619047D01*
X110957142Y-44238095D02*
X111004761Y-44285714D01*
X111052380Y-44428571D01*
X111052380Y-44523809D01*
X111004761Y-44666666D01*
X110909523Y-44761904D01*
X110814285Y-44809523D01*
X110623809Y-44857142D01*
X110480952Y-44857142D01*
X110290476Y-44809523D01*
X110195238Y-44761904D01*
X110100000Y-44666666D01*
X110052380Y-44523809D01*
X110052380Y-44428571D01*
X110100000Y-44285714D01*
X110147619Y-44238095D01*
X111052380Y-43809523D02*
X110052380Y-43809523D01*
X111052380Y-43238095D02*
X110480952Y-43666666D01*
X110052380Y-43238095D02*
X110623809Y-43809523D01*
X103452380Y-46642857D02*
X102452380Y-46642857D01*
X103452380Y-46071428D01*
X102452380Y-46071428D01*
X103452380Y-45023809D02*
X102976190Y-45357142D01*
X103452380Y-45595238D02*
X102452380Y-45595238D01*
X102452380Y-45214285D01*
X102500000Y-45119047D01*
X102547619Y-45071428D01*
X102642857Y-45023809D01*
X102785714Y-45023809D01*
X102880952Y-45071428D01*
X102928571Y-45119047D01*
X102976190Y-45214285D01*
X102976190Y-45595238D01*
X103404761Y-44642857D02*
X103452380Y-44500000D01*
X103452380Y-44261904D01*
X103404761Y-44166666D01*
X103357142Y-44119047D01*
X103261904Y-44071428D01*
X103166666Y-44071428D01*
X103071428Y-44119047D01*
X103023809Y-44166666D01*
X102976190Y-44261904D01*
X102928571Y-44452380D01*
X102880952Y-44547619D01*
X102833333Y-44595238D01*
X102738095Y-44642857D01*
X102642857Y-44642857D01*
X102547619Y-44595238D01*
X102500000Y-44547619D01*
X102452380Y-44452380D01*
X102452380Y-44214285D01*
X102500000Y-44071428D01*
X102452380Y-43785714D02*
X102452380Y-43214285D01*
X103452380Y-43500000D02*
X102452380Y-43500000D01*
%TO.C,C2*%
X76083333Y-48577142D02*
X76035714Y-48624761D01*
X75892857Y-48672380D01*
X75797619Y-48672380D01*
X75654761Y-48624761D01*
X75559523Y-48529523D01*
X75511904Y-48434285D01*
X75464285Y-48243809D01*
X75464285Y-48100952D01*
X75511904Y-47910476D01*
X75559523Y-47815238D01*
X75654761Y-47720000D01*
X75797619Y-47672380D01*
X75892857Y-47672380D01*
X76035714Y-47720000D01*
X76083333Y-47767619D01*
X76464285Y-47767619D02*
X76511904Y-47720000D01*
X76607142Y-47672380D01*
X76845238Y-47672380D01*
X76940476Y-47720000D01*
X76988095Y-47767619D01*
X77035714Y-47862857D01*
X77035714Y-47958095D01*
X76988095Y-48100952D01*
X76416666Y-48672380D01*
X77035714Y-48672380D01*
%TO.C,C4*%
X82957142Y-52966666D02*
X83004761Y-53014285D01*
X83052380Y-53157142D01*
X83052380Y-53252380D01*
X83004761Y-53395238D01*
X82909523Y-53490476D01*
X82814285Y-53538095D01*
X82623809Y-53585714D01*
X82480952Y-53585714D01*
X82290476Y-53538095D01*
X82195238Y-53490476D01*
X82100000Y-53395238D01*
X82052380Y-53252380D01*
X82052380Y-53157142D01*
X82100000Y-53014285D01*
X82147619Y-52966666D01*
X82385714Y-52109523D02*
X83052380Y-52109523D01*
X82004761Y-52347619D02*
X82719047Y-52585714D01*
X82719047Y-51966666D01*
%TO.C,C7*%
X109677142Y-56391666D02*
X109724761Y-56439285D01*
X109772380Y-56582142D01*
X109772380Y-56677380D01*
X109724761Y-56820238D01*
X109629523Y-56915476D01*
X109534285Y-56963095D01*
X109343809Y-57010714D01*
X109200952Y-57010714D01*
X109010476Y-56963095D01*
X108915238Y-56915476D01*
X108820000Y-56820238D01*
X108772380Y-56677380D01*
X108772380Y-56582142D01*
X108820000Y-56439285D01*
X108867619Y-56391666D01*
X108772380Y-56058333D02*
X108772380Y-55391666D01*
X109772380Y-55820238D01*
%TO.C,C1*%
X110033333Y-62357142D02*
X109985714Y-62404761D01*
X109842857Y-62452380D01*
X109747619Y-62452380D01*
X109604761Y-62404761D01*
X109509523Y-62309523D01*
X109461904Y-62214285D01*
X109414285Y-62023809D01*
X109414285Y-61880952D01*
X109461904Y-61690476D01*
X109509523Y-61595238D01*
X109604761Y-61500000D01*
X109747619Y-61452380D01*
X109842857Y-61452380D01*
X109985714Y-61500000D01*
X110033333Y-61547619D01*
X110985714Y-62452380D02*
X110414285Y-62452380D01*
X110700000Y-62452380D02*
X110700000Y-61452380D01*
X110604761Y-61595238D01*
X110509523Y-61690476D01*
X110414285Y-61738095D01*
%TO.C,R4*%
X98273333Y-47052380D02*
X97940000Y-46576190D01*
X97701904Y-47052380D02*
X97701904Y-46052380D01*
X98082857Y-46052380D01*
X98178095Y-46100000D01*
X98225714Y-46147619D01*
X98273333Y-46242857D01*
X98273333Y-46385714D01*
X98225714Y-46480952D01*
X98178095Y-46528571D01*
X98082857Y-46576190D01*
X97701904Y-46576190D01*
X99130476Y-46385714D02*
X99130476Y-47052380D01*
X98892380Y-46004761D02*
X98654285Y-46719047D01*
X99273333Y-46719047D01*
%TO.C,C9*%
X93907142Y-49566666D02*
X93954761Y-49614285D01*
X94002380Y-49757142D01*
X94002380Y-49852380D01*
X93954761Y-49995238D01*
X93859523Y-50090476D01*
X93764285Y-50138095D01*
X93573809Y-50185714D01*
X93430952Y-50185714D01*
X93240476Y-50138095D01*
X93145238Y-50090476D01*
X93050000Y-49995238D01*
X93002380Y-49852380D01*
X93002380Y-49757142D01*
X93050000Y-49614285D01*
X93097619Y-49566666D01*
X94002380Y-49090476D02*
X94002380Y-48900000D01*
X93954761Y-48804761D01*
X93907142Y-48757142D01*
X93764285Y-48661904D01*
X93573809Y-48614285D01*
X93192857Y-48614285D01*
X93097619Y-48661904D01*
X93050000Y-48709523D01*
X93002380Y-48804761D01*
X93002380Y-48995238D01*
X93050000Y-49090476D01*
X93097619Y-49138095D01*
X93192857Y-49185714D01*
X93430952Y-49185714D01*
X93526190Y-49138095D01*
X93573809Y-49090476D01*
X93621428Y-48995238D01*
X93621428Y-48804761D01*
X93573809Y-48709523D01*
X93526190Y-48661904D01*
X93430952Y-48614285D01*
%TO.C,FB2*%
X86978571Y-52833333D02*
X86978571Y-53166666D01*
X87502380Y-53166666D02*
X86502380Y-53166666D01*
X86502380Y-52690476D01*
X86978571Y-51976190D02*
X87026190Y-51833333D01*
X87073809Y-51785714D01*
X87169047Y-51738095D01*
X87311904Y-51738095D01*
X87407142Y-51785714D01*
X87454761Y-51833333D01*
X87502380Y-51928571D01*
X87502380Y-52309523D01*
X86502380Y-52309523D01*
X86502380Y-51976190D01*
X86550000Y-51880952D01*
X86597619Y-51833333D01*
X86692857Y-51785714D01*
X86788095Y-51785714D01*
X86883333Y-51833333D01*
X86930952Y-51880952D01*
X86978571Y-51976190D01*
X86978571Y-52309523D01*
X86597619Y-51357142D02*
X86550000Y-51309523D01*
X86502380Y-51214285D01*
X86502380Y-50976190D01*
X86550000Y-50880952D01*
X86597619Y-50833333D01*
X86692857Y-50785714D01*
X86788095Y-50785714D01*
X86930952Y-50833333D01*
X87502380Y-51404761D01*
X87502380Y-50785714D01*
%TO.C,R5*%
X102972380Y-56566666D02*
X102496190Y-56900000D01*
X102972380Y-57138095D02*
X101972380Y-57138095D01*
X101972380Y-56757142D01*
X102020000Y-56661904D01*
X102067619Y-56614285D01*
X102162857Y-56566666D01*
X102305714Y-56566666D01*
X102400952Y-56614285D01*
X102448571Y-56661904D01*
X102496190Y-56757142D01*
X102496190Y-57138095D01*
X101972380Y-55661904D02*
X101972380Y-56138095D01*
X102448571Y-56185714D01*
X102400952Y-56138095D01*
X102353333Y-56042857D01*
X102353333Y-55804761D01*
X102400952Y-55709523D01*
X102448571Y-55661904D01*
X102543809Y-55614285D01*
X102781904Y-55614285D01*
X102877142Y-55661904D01*
X102924761Y-55709523D01*
X102972380Y-55804761D01*
X102972380Y-56042857D01*
X102924761Y-56138095D01*
X102877142Y-56185714D01*
%TO.C,R1*%
X84952380Y-55966666D02*
X84476190Y-56300000D01*
X84952380Y-56538095D02*
X83952380Y-56538095D01*
X83952380Y-56157142D01*
X84000000Y-56061904D01*
X84047619Y-56014285D01*
X84142857Y-55966666D01*
X84285714Y-55966666D01*
X84380952Y-56014285D01*
X84428571Y-56061904D01*
X84476190Y-56157142D01*
X84476190Y-56538095D01*
X84952380Y-55014285D02*
X84952380Y-55585714D01*
X84952380Y-55300000D02*
X83952380Y-55300000D01*
X84095238Y-55395238D01*
X84190476Y-55490476D01*
X84238095Y-55585714D01*
%TO.C,U3*%
X107838095Y-48852380D02*
X107838095Y-49661904D01*
X107885714Y-49757142D01*
X107933333Y-49804761D01*
X108028571Y-49852380D01*
X108219047Y-49852380D01*
X108314285Y-49804761D01*
X108361904Y-49757142D01*
X108409523Y-49661904D01*
X108409523Y-48852380D01*
X108790476Y-48852380D02*
X109409523Y-48852380D01*
X109076190Y-49233333D01*
X109219047Y-49233333D01*
X109314285Y-49280952D01*
X109361904Y-49328571D01*
X109409523Y-49423809D01*
X109409523Y-49661904D01*
X109361904Y-49757142D01*
X109314285Y-49804761D01*
X109219047Y-49852380D01*
X108933333Y-49852380D01*
X108838095Y-49804761D01*
X108790476Y-49757142D01*
%TO.C,C10*%
X104117142Y-55142857D02*
X104164761Y-55190476D01*
X104212380Y-55333333D01*
X104212380Y-55428571D01*
X104164761Y-55571428D01*
X104069523Y-55666666D01*
X103974285Y-55714285D01*
X103783809Y-55761904D01*
X103640952Y-55761904D01*
X103450476Y-55714285D01*
X103355238Y-55666666D01*
X103260000Y-55571428D01*
X103212380Y-55428571D01*
X103212380Y-55333333D01*
X103260000Y-55190476D01*
X103307619Y-55142857D01*
X104212380Y-54190476D02*
X104212380Y-54761904D01*
X104212380Y-54476190D02*
X103212380Y-54476190D01*
X103355238Y-54571428D01*
X103450476Y-54666666D01*
X103498095Y-54761904D01*
X103212380Y-53571428D02*
X103212380Y-53476190D01*
X103260000Y-53380952D01*
X103307619Y-53333333D01*
X103402857Y-53285714D01*
X103593333Y-53238095D01*
X103831428Y-53238095D01*
X104021904Y-53285714D01*
X104117142Y-53333333D01*
X104164761Y-53380952D01*
X104212380Y-53476190D01*
X104212380Y-53571428D01*
X104164761Y-53666666D01*
X104117142Y-53714285D01*
X104021904Y-53761904D01*
X103831428Y-53809523D01*
X103593333Y-53809523D01*
X103402857Y-53761904D01*
X103307619Y-53714285D01*
X103260000Y-53666666D01*
X103212380Y-53571428D01*
%TO.C,D2*%
X114649404Y-62082380D02*
X114649404Y-61082380D01*
X114887500Y-61082380D01*
X115030357Y-61130000D01*
X115125595Y-61225238D01*
X115173214Y-61320476D01*
X115220833Y-61510952D01*
X115220833Y-61653809D01*
X115173214Y-61844285D01*
X115125595Y-61939523D01*
X115030357Y-62034761D01*
X114887500Y-62082380D01*
X114649404Y-62082380D01*
X115601785Y-61177619D02*
X115649404Y-61130000D01*
X115744642Y-61082380D01*
X115982738Y-61082380D01*
X116077976Y-61130000D01*
X116125595Y-61177619D01*
X116173214Y-61272857D01*
X116173214Y-61368095D01*
X116125595Y-61510952D01*
X115554166Y-62082380D01*
X116173214Y-62082380D01*
%TO.C,D3*%
X98411904Y-58082380D02*
X98411904Y-57082380D01*
X98650000Y-57082380D01*
X98792857Y-57130000D01*
X98888095Y-57225238D01*
X98935714Y-57320476D01*
X98983333Y-57510952D01*
X98983333Y-57653809D01*
X98935714Y-57844285D01*
X98888095Y-57939523D01*
X98792857Y-58034761D01*
X98650000Y-58082380D01*
X98411904Y-58082380D01*
X99316666Y-57082380D02*
X99935714Y-57082380D01*
X99602380Y-57463333D01*
X99745238Y-57463333D01*
X99840476Y-57510952D01*
X99888095Y-57558571D01*
X99935714Y-57653809D01*
X99935714Y-57891904D01*
X99888095Y-57987142D01*
X99840476Y-58034761D01*
X99745238Y-58082380D01*
X99459523Y-58082380D01*
X99364285Y-58034761D01*
X99316666Y-57987142D01*
%TO.C,C3*%
X103757142Y-59366666D02*
X103804761Y-59414285D01*
X103852380Y-59557142D01*
X103852380Y-59652380D01*
X103804761Y-59795238D01*
X103709523Y-59890476D01*
X103614285Y-59938095D01*
X103423809Y-59985714D01*
X103280952Y-59985714D01*
X103090476Y-59938095D01*
X102995238Y-59890476D01*
X102900000Y-59795238D01*
X102852380Y-59652380D01*
X102852380Y-59557142D01*
X102900000Y-59414285D01*
X102947619Y-59366666D01*
X102852380Y-59033333D02*
X102852380Y-58414285D01*
X103233333Y-58747619D01*
X103233333Y-58604761D01*
X103280952Y-58509523D01*
X103328571Y-58461904D01*
X103423809Y-58414285D01*
X103661904Y-58414285D01*
X103757142Y-58461904D01*
X103804761Y-58509523D01*
X103852380Y-58604761D01*
X103852380Y-58890476D01*
X103804761Y-58985714D01*
X103757142Y-59033333D01*
%TO.C,C11*%
X93357142Y-54157142D02*
X93309523Y-54204761D01*
X93166666Y-54252380D01*
X93071428Y-54252380D01*
X92928571Y-54204761D01*
X92833333Y-54109523D01*
X92785714Y-54014285D01*
X92738095Y-53823809D01*
X92738095Y-53680952D01*
X92785714Y-53490476D01*
X92833333Y-53395238D01*
X92928571Y-53300000D01*
X93071428Y-53252380D01*
X93166666Y-53252380D01*
X93309523Y-53300000D01*
X93357142Y-53347619D01*
X94309523Y-54252380D02*
X93738095Y-54252380D01*
X94023809Y-54252380D02*
X94023809Y-53252380D01*
X93928571Y-53395238D01*
X93833333Y-53490476D01*
X93738095Y-53538095D01*
X95261904Y-54252380D02*
X94690476Y-54252380D01*
X94976190Y-54252380D02*
X94976190Y-53252380D01*
X94880952Y-53395238D01*
X94785714Y-53490476D01*
X94690476Y-53538095D01*
%TO.C,C13*%
X99757142Y-45242857D02*
X99804761Y-45290476D01*
X99852380Y-45433333D01*
X99852380Y-45528571D01*
X99804761Y-45671428D01*
X99709523Y-45766666D01*
X99614285Y-45814285D01*
X99423809Y-45861904D01*
X99280952Y-45861904D01*
X99090476Y-45814285D01*
X98995238Y-45766666D01*
X98900000Y-45671428D01*
X98852380Y-45528571D01*
X98852380Y-45433333D01*
X98900000Y-45290476D01*
X98947619Y-45242857D01*
X99852380Y-44290476D02*
X99852380Y-44861904D01*
X99852380Y-44576190D02*
X98852380Y-44576190D01*
X98995238Y-44671428D01*
X99090476Y-44766666D01*
X99138095Y-44861904D01*
X98852380Y-43957142D02*
X98852380Y-43338095D01*
X99233333Y-43671428D01*
X99233333Y-43528571D01*
X99280952Y-43433333D01*
X99328571Y-43385714D01*
X99423809Y-43338095D01*
X99661904Y-43338095D01*
X99757142Y-43385714D01*
X99804761Y-43433333D01*
X99852380Y-43528571D01*
X99852380Y-43814285D01*
X99804761Y-43909523D01*
X99757142Y-43957142D01*
%TO.C,D1*%
X100422380Y-60538095D02*
X99422380Y-60538095D01*
X99422380Y-60300000D01*
X99470000Y-60157142D01*
X99565238Y-60061904D01*
X99660476Y-60014285D01*
X99850952Y-59966666D01*
X99993809Y-59966666D01*
X100184285Y-60014285D01*
X100279523Y-60061904D01*
X100374761Y-60157142D01*
X100422380Y-60300000D01*
X100422380Y-60538095D01*
X100422380Y-59014285D02*
X100422380Y-59585714D01*
X100422380Y-59300000D02*
X99422380Y-59300000D01*
X99565238Y-59395238D01*
X99660476Y-59490476D01*
X99708095Y-59585714D01*
%TO.C,U4*%
X100388095Y-47482380D02*
X100388095Y-48291904D01*
X100435714Y-48387142D01*
X100483333Y-48434761D01*
X100578571Y-48482380D01*
X100769047Y-48482380D01*
X100864285Y-48434761D01*
X100911904Y-48387142D01*
X100959523Y-48291904D01*
X100959523Y-47482380D01*
X101864285Y-47815714D02*
X101864285Y-48482380D01*
X101626190Y-47434761D02*
X101388095Y-48149047D01*
X102007142Y-48149047D01*
%TO.C,C14*%
X89707142Y-47927142D02*
X89659523Y-47974761D01*
X89516666Y-48022380D01*
X89421428Y-48022380D01*
X89278571Y-47974761D01*
X89183333Y-47879523D01*
X89135714Y-47784285D01*
X89088095Y-47593809D01*
X89088095Y-47450952D01*
X89135714Y-47260476D01*
X89183333Y-47165238D01*
X89278571Y-47070000D01*
X89421428Y-47022380D01*
X89516666Y-47022380D01*
X89659523Y-47070000D01*
X89707142Y-47117619D01*
X90659523Y-48022380D02*
X90088095Y-48022380D01*
X90373809Y-48022380D02*
X90373809Y-47022380D01*
X90278571Y-47165238D01*
X90183333Y-47260476D01*
X90088095Y-47308095D01*
X91516666Y-47355714D02*
X91516666Y-48022380D01*
X91278571Y-46974761D02*
X91040476Y-47689047D01*
X91659523Y-47689047D01*
%TO.C,C8*%
X95583333Y-46527142D02*
X95535714Y-46574761D01*
X95392857Y-46622380D01*
X95297619Y-46622380D01*
X95154761Y-46574761D01*
X95059523Y-46479523D01*
X95011904Y-46384285D01*
X94964285Y-46193809D01*
X94964285Y-46050952D01*
X95011904Y-45860476D01*
X95059523Y-45765238D01*
X95154761Y-45670000D01*
X95297619Y-45622380D01*
X95392857Y-45622380D01*
X95535714Y-45670000D01*
X95583333Y-45717619D01*
X96154761Y-46050952D02*
X96059523Y-46003333D01*
X96011904Y-45955714D01*
X95964285Y-45860476D01*
X95964285Y-45812857D01*
X96011904Y-45717619D01*
X96059523Y-45670000D01*
X96154761Y-45622380D01*
X96345238Y-45622380D01*
X96440476Y-45670000D01*
X96488095Y-45717619D01*
X96535714Y-45812857D01*
X96535714Y-45860476D01*
X96488095Y-45955714D01*
X96440476Y-46003333D01*
X96345238Y-46050952D01*
X96154761Y-46050952D01*
X96059523Y-46098571D01*
X96011904Y-46146190D01*
X95964285Y-46241428D01*
X95964285Y-46431904D01*
X96011904Y-46527142D01*
X96059523Y-46574761D01*
X96154761Y-46622380D01*
X96345238Y-46622380D01*
X96440476Y-46574761D01*
X96488095Y-46527142D01*
X96535714Y-46431904D01*
X96535714Y-46241428D01*
X96488095Y-46146190D01*
X96440476Y-46098571D01*
X96345238Y-46050952D01*
%TO.C,U2*%
X72688095Y-49302380D02*
X72688095Y-50111904D01*
X72735714Y-50207142D01*
X72783333Y-50254761D01*
X72878571Y-50302380D01*
X73069047Y-50302380D01*
X73164285Y-50254761D01*
X73211904Y-50207142D01*
X73259523Y-50111904D01*
X73259523Y-49302380D01*
X73688095Y-49397619D02*
X73735714Y-49350000D01*
X73830952Y-49302380D01*
X74069047Y-49302380D01*
X74164285Y-49350000D01*
X74211904Y-49397619D01*
X74259523Y-49492857D01*
X74259523Y-49588095D01*
X74211904Y-49730952D01*
X73640476Y-50302380D01*
X74259523Y-50302380D01*
%TO.C,R2*%
X101433333Y-63622380D02*
X101100000Y-63146190D01*
X100861904Y-63622380D02*
X100861904Y-62622380D01*
X101242857Y-62622380D01*
X101338095Y-62670000D01*
X101385714Y-62717619D01*
X101433333Y-62812857D01*
X101433333Y-62955714D01*
X101385714Y-63050952D01*
X101338095Y-63098571D01*
X101242857Y-63146190D01*
X100861904Y-63146190D01*
X101814285Y-62717619D02*
X101861904Y-62670000D01*
X101957142Y-62622380D01*
X102195238Y-62622380D01*
X102290476Y-62670000D01*
X102338095Y-62717619D01*
X102385714Y-62812857D01*
X102385714Y-62908095D01*
X102338095Y-63050952D01*
X101766666Y-63622380D01*
X102385714Y-63622380D01*
%TO.C,C6*%
X116607142Y-56391666D02*
X116654761Y-56439285D01*
X116702380Y-56582142D01*
X116702380Y-56677380D01*
X116654761Y-56820238D01*
X116559523Y-56915476D01*
X116464285Y-56963095D01*
X116273809Y-57010714D01*
X116130952Y-57010714D01*
X115940476Y-56963095D01*
X115845238Y-56915476D01*
X115750000Y-56820238D01*
X115702380Y-56677380D01*
X115702380Y-56582142D01*
X115750000Y-56439285D01*
X115797619Y-56391666D01*
X115702380Y-55534523D02*
X115702380Y-55725000D01*
X115750000Y-55820238D01*
X115797619Y-55867857D01*
X115940476Y-55963095D01*
X116130952Y-56010714D01*
X116511904Y-56010714D01*
X116607142Y-55963095D01*
X116654761Y-55915476D01*
X116702380Y-55820238D01*
X116702380Y-55629761D01*
X116654761Y-55534523D01*
X116607142Y-55486904D01*
X116511904Y-55439285D01*
X116273809Y-55439285D01*
X116178571Y-55486904D01*
X116130952Y-55534523D01*
X116083333Y-55629761D01*
X116083333Y-55820238D01*
X116130952Y-55915476D01*
X116178571Y-55963095D01*
X116273809Y-56010714D01*
%TO.C,C5*%
X80975497Y-56907142D02*
X80927878Y-56954761D01*
X80785021Y-57002380D01*
X80689783Y-57002380D01*
X80546925Y-56954761D01*
X80451687Y-56859523D01*
X80404068Y-56764285D01*
X80356449Y-56573809D01*
X80356449Y-56430952D01*
X80404068Y-56240476D01*
X80451687Y-56145238D01*
X80546925Y-56050000D01*
X80689783Y-56002380D01*
X80785021Y-56002380D01*
X80927878Y-56050000D01*
X80975497Y-56097619D01*
X81880259Y-56002380D02*
X81404068Y-56002380D01*
X81356449Y-56478571D01*
X81404068Y-56430952D01*
X81499306Y-56383333D01*
X81737402Y-56383333D01*
X81832640Y-56430952D01*
X81880259Y-56478571D01*
X81927878Y-56573809D01*
X81927878Y-56811904D01*
X81880259Y-56907142D01*
X81832640Y-56954761D01*
X81737402Y-57002380D01*
X81499306Y-57002380D01*
X81404068Y-56954761D01*
X81356449Y-56907142D01*
%TO.C,FB1*%
X111916666Y-58428571D02*
X111583333Y-58428571D01*
X111583333Y-58952380D02*
X111583333Y-57952380D01*
X112059523Y-57952380D01*
X112773809Y-58428571D02*
X112916666Y-58476190D01*
X112964285Y-58523809D01*
X113011904Y-58619047D01*
X113011904Y-58761904D01*
X112964285Y-58857142D01*
X112916666Y-58904761D01*
X112821428Y-58952380D01*
X112440476Y-58952380D01*
X112440476Y-57952380D01*
X112773809Y-57952380D01*
X112869047Y-58000000D01*
X112916666Y-58047619D01*
X112964285Y-58142857D01*
X112964285Y-58238095D01*
X112916666Y-58333333D01*
X112869047Y-58380952D01*
X112773809Y-58428571D01*
X112440476Y-58428571D01*
X113964285Y-58952380D02*
X113392857Y-58952380D01*
X113678571Y-58952380D02*
X113678571Y-57952380D01*
X113583333Y-58095238D01*
X113488095Y-58190476D01*
X113392857Y-58238095D01*
%TO.C,C12*%
X90777142Y-52642857D02*
X90824761Y-52690476D01*
X90872380Y-52833333D01*
X90872380Y-52928571D01*
X90824761Y-53071428D01*
X90729523Y-53166666D01*
X90634285Y-53214285D01*
X90443809Y-53261904D01*
X90300952Y-53261904D01*
X90110476Y-53214285D01*
X90015238Y-53166666D01*
X89920000Y-53071428D01*
X89872380Y-52928571D01*
X89872380Y-52833333D01*
X89920000Y-52690476D01*
X89967619Y-52642857D01*
X90872380Y-51690476D02*
X90872380Y-52261904D01*
X90872380Y-51976190D02*
X89872380Y-51976190D01*
X90015238Y-52071428D01*
X90110476Y-52166666D01*
X90158095Y-52261904D01*
X89967619Y-51309523D02*
X89920000Y-51261904D01*
X89872380Y-51166666D01*
X89872380Y-50928571D01*
X89920000Y-50833333D01*
X89967619Y-50785714D01*
X90062857Y-50738095D01*
X90158095Y-50738095D01*
X90300952Y-50785714D01*
X90872380Y-51357142D01*
X90872380Y-50738095D01*
%TO.C,D4*%
X92822380Y-56950595D02*
X91822380Y-56950595D01*
X91822380Y-56712500D01*
X91870000Y-56569642D01*
X91965238Y-56474404D01*
X92060476Y-56426785D01*
X92250952Y-56379166D01*
X92393809Y-56379166D01*
X92584285Y-56426785D01*
X92679523Y-56474404D01*
X92774761Y-56569642D01*
X92822380Y-56712500D01*
X92822380Y-56950595D01*
X92155714Y-55522023D02*
X92822380Y-55522023D01*
X91774761Y-55760119D02*
X92489047Y-55998214D01*
X92489047Y-55379166D01*
%TO.C,R6*%
X97202380Y-56366666D02*
X96726190Y-56700000D01*
X97202380Y-56938095D02*
X96202380Y-56938095D01*
X96202380Y-56557142D01*
X96250000Y-56461904D01*
X96297619Y-56414285D01*
X96392857Y-56366666D01*
X96535714Y-56366666D01*
X96630952Y-56414285D01*
X96678571Y-56461904D01*
X96726190Y-56557142D01*
X96726190Y-56938095D01*
X96202380Y-55509523D02*
X96202380Y-55700000D01*
X96250000Y-55795238D01*
X96297619Y-55842857D01*
X96440476Y-55938095D01*
X96630952Y-55985714D01*
X97011904Y-55985714D01*
X97107142Y-55938095D01*
X97154761Y-55890476D01*
X97202380Y-55795238D01*
X97202380Y-55604761D01*
X97154761Y-55509523D01*
X97107142Y-55461904D01*
X97011904Y-55414285D01*
X96773809Y-55414285D01*
X96678571Y-55461904D01*
X96630952Y-55509523D01*
X96583333Y-55604761D01*
X96583333Y-55795238D01*
X96630952Y-55890476D01*
X96678571Y-55938095D01*
X96773809Y-55985714D01*
%TO.C,U1*%
X105838095Y-62452380D02*
X105838095Y-63261904D01*
X105885714Y-63357142D01*
X105933333Y-63404761D01*
X106028571Y-63452380D01*
X106219047Y-63452380D01*
X106314285Y-63404761D01*
X106361904Y-63357142D01*
X106409523Y-63261904D01*
X106409523Y-62452380D01*
X107409523Y-63452380D02*
X106838095Y-63452380D01*
X107123809Y-63452380D02*
X107123809Y-62452380D01*
X107028571Y-62595238D01*
X106933333Y-62690476D01*
X106838095Y-62738095D01*
%TO.C,R3*%
X117633333Y-59239880D02*
X117300000Y-58763690D01*
X117061904Y-59239880D02*
X117061904Y-58239880D01*
X117442857Y-58239880D01*
X117538095Y-58287500D01*
X117585714Y-58335119D01*
X117633333Y-58430357D01*
X117633333Y-58573214D01*
X117585714Y-58668452D01*
X117538095Y-58716071D01*
X117442857Y-58763690D01*
X117061904Y-58763690D01*
X117966666Y-58239880D02*
X118585714Y-58239880D01*
X118252380Y-58620833D01*
X118395238Y-58620833D01*
X118490476Y-58668452D01*
X118538095Y-58716071D01*
X118585714Y-58811309D01*
X118585714Y-59049404D01*
X118538095Y-59144642D01*
X118490476Y-59192261D01*
X118395238Y-59239880D01*
X118109523Y-59239880D01*
X118014285Y-59192261D01*
X117966666Y-59144642D01*
D12*
%TO.C,C2*%
X76109420Y-50160000D02*
X76390580Y-50160000D01*
X76109420Y-49140000D02*
X76390580Y-49140000D01*
%TO.C,C4*%
X80490000Y-52165580D02*
X80490000Y-51884420D01*
X81510000Y-52165580D02*
X81510000Y-51884420D01*
%TO.C,C7*%
X110240000Y-56365580D02*
X110240000Y-56084420D01*
X111260000Y-56365580D02*
X111260000Y-56084420D01*
%TO.C,C1*%
X110710000Y-59915580D02*
X110710000Y-59634420D01*
X109690000Y-59915580D02*
X109690000Y-59634420D01*
%TO.C,J4*%
X111930000Y-37870000D02*
X111930000Y-40470000D01*
X114530000Y-37870000D02*
X114530000Y-39200000D01*
X101710000Y-37870000D02*
X101710000Y-43070000D01*
X111930000Y-37870000D02*
X101710000Y-37870000D01*
X114530000Y-40470000D02*
X114530000Y-43070000D01*
X111930000Y-40470000D02*
X114530000Y-40470000D01*
X114530000Y-43070000D02*
X101710000Y-43070000D01*
X113200000Y-37870000D02*
X114530000Y-37870000D01*
%TO.C,R4*%
X98593641Y-47420000D02*
X98286359Y-47420000D01*
X98593641Y-48180000D02*
X98286359Y-48180000D01*
%TO.C,C9*%
X94490000Y-49392164D02*
X94490000Y-49607836D01*
X95210000Y-49392164D02*
X95210000Y-49607836D01*
%TO.C,FB2*%
X89160000Y-52399622D02*
X89160000Y-51600378D01*
X88040000Y-52399622D02*
X88040000Y-51600378D01*
%TO.C,R5*%
X101730000Y-56046359D02*
X101730000Y-56353641D01*
X100970000Y-56046359D02*
X100970000Y-56353641D01*
%TO.C,R1*%
X82870000Y-55963641D02*
X82870000Y-55656359D01*
X83630000Y-55963641D02*
X83630000Y-55656359D01*
%TO.C,U3*%
X110000000Y-50190000D02*
X108200000Y-50190000D01*
X110000000Y-53310000D02*
X109200000Y-53310000D01*
X110000000Y-53310000D02*
X110800000Y-53310000D01*
X110000000Y-50190000D02*
X110800000Y-50190000D01*
%TO.C,C10*%
X102960000Y-54392164D02*
X102960000Y-54607836D01*
X102240000Y-54392164D02*
X102240000Y-54607836D01*
%TO.C,D2*%
X116872500Y-59465000D02*
X114587500Y-59465000D01*
X114587500Y-60935000D02*
X116872500Y-60935000D01*
X116872500Y-60935000D02*
X116872500Y-59465000D01*
%TO.C,D3*%
X98350000Y-56935000D02*
X100635000Y-56935000D01*
X100635000Y-56935000D02*
X100635000Y-55465000D01*
X100635000Y-55465000D02*
X98350000Y-55465000D01*
%TO.C,C3*%
X105310000Y-59634420D02*
X105310000Y-59915580D01*
X104290000Y-59634420D02*
X104290000Y-59915580D01*
%TO.C,C11*%
X94160000Y-52107836D02*
X94160000Y-51892164D01*
X93440000Y-52107836D02*
X93440000Y-51892164D01*
%TO.C,C13*%
X100240000Y-44492164D02*
X100240000Y-44707836D01*
X100960000Y-44492164D02*
X100960000Y-44707836D01*
%TO.C,D1*%
X100665000Y-59000000D02*
X100665000Y-61285000D01*
X102135000Y-61285000D02*
X102135000Y-59000000D01*
X100665000Y-61285000D02*
X102135000Y-61285000D01*
%TO.C,U4*%
X100885000Y-54460000D02*
X101360000Y-54460000D01*
X101360000Y-49240000D02*
X101360000Y-49715000D01*
X101360000Y-54460000D02*
X101360000Y-53985000D01*
X96615000Y-54460000D02*
X96140000Y-54460000D01*
X96140000Y-54460000D02*
X96140000Y-53985000D01*
X96615000Y-49240000D02*
X96140000Y-49240000D01*
X100885000Y-49240000D02*
X101360000Y-49240000D01*
%TO.C,J2*%
X99155000Y-63270000D02*
X99155000Y-64600000D01*
X97825000Y-63270000D02*
X99155000Y-63270000D01*
X96555000Y-63270000D02*
X96555000Y-65930000D01*
X81255000Y-63270000D02*
X81255000Y-65930000D01*
X96555000Y-65930000D02*
X81255000Y-65930000D01*
X96555000Y-63270000D02*
X81255000Y-63270000D01*
%TO.C,J3*%
X52870000Y-54210000D02*
X52870000Y-49070000D01*
X54200000Y-56810000D02*
X52870000Y-56810000D01*
X55530000Y-49070000D02*
X52870000Y-49070000D01*
X55530000Y-54210000D02*
X52870000Y-54210000D01*
X52870000Y-56810000D02*
X52870000Y-55480000D01*
X55530000Y-54210000D02*
X55530000Y-49070000D01*
%TO.C,C14*%
X90209420Y-49510000D02*
X90490580Y-49510000D01*
X90209420Y-48490000D02*
X90490580Y-48490000D01*
%TO.C,C8*%
X95609420Y-48110000D02*
X95890580Y-48110000D01*
X95609420Y-47090000D02*
X95890580Y-47090000D01*
%TO.C,U2*%
X76250000Y-50690000D02*
X78200000Y-50690000D01*
X76250000Y-55810000D02*
X78200000Y-55810000D01*
X76250000Y-55810000D02*
X74300000Y-55810000D01*
X76250000Y-50690000D02*
X72800000Y-50690000D01*
%TO.C,R2*%
X101753641Y-61620000D02*
X101446359Y-61620000D01*
X101753641Y-62380000D02*
X101446359Y-62380000D01*
%TO.C,C6*%
X115260000Y-56084420D02*
X115260000Y-56365580D01*
X114240000Y-56084420D02*
X114240000Y-56365580D01*
%TO.C,J1*%
X118440000Y-48390000D02*
X120210000Y-48390000D01*
X118440000Y-48390000D02*
X118440000Y-48770000D01*
X122750000Y-56010000D02*
X122490000Y-56010000D01*
X120210000Y-56010000D02*
X118440000Y-56010000D01*
X122490000Y-48390000D02*
X122750000Y-48390000D01*
X118440000Y-56010000D02*
X118440000Y-55630000D01*
%TO.C,C5*%
X81357836Y-55660000D02*
X81142164Y-55660000D01*
X81357836Y-54940000D02*
X81142164Y-54940000D01*
%TO.C,FB1*%
X112190000Y-55600378D02*
X112190000Y-56399622D01*
X113310000Y-55600378D02*
X113310000Y-56399622D01*
%TO.C,RV1*%
X89875000Y-37660000D02*
X80105000Y-37660000D01*
X89875000Y-42730000D02*
X89875000Y-37660000D01*
X89875000Y-42730000D02*
X80105000Y-42730000D01*
X80105000Y-42730000D02*
X80105000Y-37660000D01*
%TO.C,C12*%
X91340000Y-52140580D02*
X91340000Y-51859420D01*
X92360000Y-52140580D02*
X92360000Y-51859420D01*
%TO.C,D4*%
X93065000Y-55412500D02*
X93065000Y-57697500D01*
X94535000Y-57697500D02*
X94535000Y-55412500D01*
X93065000Y-57697500D02*
X94535000Y-57697500D01*
%TO.C,R6*%
X95930000Y-56353641D02*
X95930000Y-56046359D01*
X95170000Y-56353641D02*
X95170000Y-56046359D01*
%TO.C,U1*%
X105940000Y-60250000D02*
X105940000Y-60900000D01*
X109060000Y-60250000D02*
X109060000Y-58575000D01*
X109060000Y-60250000D02*
X109060000Y-60900000D01*
X105940000Y-60250000D02*
X105940000Y-59600000D01*
%TO.C,R3*%
X115736359Y-59167500D02*
X116043641Y-59167500D01*
X115736359Y-58407500D02*
X116043641Y-58407500D01*
%TD*%
%LPC*%
D13*
%TO.C,C2*%
X75475000Y-49650000D03*
X77025000Y-49650000D03*
%TD*%
D14*
%TO.C,C4*%
X81000000Y-52800000D03*
X81000000Y-51250000D03*
%TD*%
%TO.C,C7*%
X110750000Y-57000000D03*
X110750000Y-55450000D03*
%TD*%
%TO.C,C1*%
X110200000Y-60550000D03*
X110200000Y-59000000D03*
%TD*%
D15*
%TO.C,J4*%
X113200000Y-39200000D03*
D16*
X113200000Y-41740000D03*
X110660000Y-39200000D03*
X110660000Y-41740000D03*
X108120000Y-39200000D03*
X108120000Y-41740000D03*
X105580000Y-39200000D03*
X105580000Y-41740000D03*
X103040000Y-39200000D03*
X103040000Y-41740000D03*
%TD*%
D17*
%TO.C,H2*%
X120000000Y-65000000D03*
%TD*%
D18*
%TO.C,R4*%
X98950000Y-47800000D03*
X97930000Y-47800000D03*
%TD*%
D19*
%TO.C,C9*%
X94850000Y-49020000D03*
X94850000Y-49980000D03*
%TD*%
D20*
%TO.C,FB2*%
X88600000Y-53062500D03*
X88600000Y-50937500D03*
%TD*%
D21*
%TO.C,R5*%
X101350000Y-55690000D03*
X101350000Y-56710000D03*
%TD*%
D22*
%TO.C,R1*%
X83250000Y-56320000D03*
X83250000Y-55300000D03*
%TD*%
D23*
%TO.C,U3*%
X108862500Y-50800000D03*
X108862500Y-51750000D03*
X108862500Y-52700000D03*
X111137500Y-52700000D03*
X111137500Y-51750000D03*
X111137500Y-50800000D03*
%TD*%
D17*
%TO.C,H3*%
X55000000Y-65000000D03*
%TD*%
D19*
%TO.C,C10*%
X102600000Y-54020000D03*
X102600000Y-54980000D03*
%TD*%
D24*
%TO.C,D2*%
X116175000Y-60200000D03*
X114600000Y-60200000D03*
%TD*%
%TO.C,D3*%
X99937500Y-56200000D03*
X98362500Y-56200000D03*
%TD*%
D25*
%TO.C,C3*%
X104800000Y-59000000D03*
X104800000Y-60550000D03*
%TD*%
D26*
%TO.C,C11*%
X93800000Y-52480000D03*
X93800000Y-51520000D03*
%TD*%
D19*
%TO.C,C13*%
X100600000Y-44120000D03*
X100600000Y-45080000D03*
%TD*%
D27*
%TO.C,D1*%
X101400000Y-60587500D03*
X101400000Y-59012500D03*
%TD*%
D28*
%TO.C,U4*%
X96312500Y-50100000D03*
X96312500Y-50600000D03*
X96312500Y-51100000D03*
X96312500Y-51600000D03*
X96312500Y-52100000D03*
X96312500Y-52600000D03*
X96312500Y-53100000D03*
X96312500Y-53600000D03*
D29*
X97000000Y-54287500D03*
X97500000Y-54287500D03*
X98000000Y-54287500D03*
X98500000Y-54287500D03*
X99000000Y-54287500D03*
X99500000Y-54287500D03*
X100000000Y-54287500D03*
X100500000Y-54287500D03*
D28*
X101187500Y-53600000D03*
X101187500Y-53100000D03*
X101187500Y-52600000D03*
X101187500Y-52100000D03*
X101187500Y-51600000D03*
X101187500Y-51100000D03*
X101187500Y-50600000D03*
X101187500Y-50100000D03*
D29*
X100500000Y-49412500D03*
X100000000Y-49412500D03*
X99500000Y-49412500D03*
X99000000Y-49412500D03*
X98500000Y-49412500D03*
X98000000Y-49412500D03*
X97500000Y-49412500D03*
X97000000Y-49412500D03*
D30*
X98750000Y-51850000D03*
%TD*%
D15*
%TO.C,J2*%
X97825000Y-64600000D03*
D16*
X95285000Y-64600000D03*
X92745000Y-64600000D03*
X90205000Y-64600000D03*
X87665000Y-64600000D03*
X85125000Y-64600000D03*
X82585000Y-64600000D03*
%TD*%
D17*
%TO.C,H4*%
X55000000Y-40000000D03*
%TD*%
D15*
%TO.C,J3*%
X54200000Y-55480000D03*
D16*
X54200000Y-52940000D03*
X54200000Y-50400000D03*
%TD*%
D13*
%TO.C,C14*%
X89575000Y-49000000D03*
X91125000Y-49000000D03*
%TD*%
D17*
%TO.C,H1*%
X120000000Y-40000000D03*
%TD*%
D13*
%TO.C,C8*%
X94975000Y-47600000D03*
X96525000Y-47600000D03*
%TD*%
D31*
%TO.C,U2*%
X73775000Y-51345000D03*
X73775000Y-52615000D03*
X73775000Y-53885000D03*
X73775000Y-55155000D03*
X78725000Y-55155000D03*
X78725000Y-53885000D03*
X78725000Y-52615000D03*
X78725000Y-51345000D03*
%TD*%
D18*
%TO.C,R2*%
X102110000Y-62000000D03*
X101090000Y-62000000D03*
%TD*%
D25*
%TO.C,C6*%
X114750000Y-55450000D03*
X114750000Y-57000000D03*
%TD*%
D32*
%TO.C,J1*%
X118690000Y-53500000D03*
X118690000Y-52850000D03*
X118690000Y-52200000D03*
X118690000Y-51550000D03*
X118690000Y-50900000D03*
D33*
X118775000Y-54687500D03*
D34*
X121350000Y-50650000D03*
D33*
X118775000Y-49712500D03*
D35*
X121350000Y-53350000D03*
D36*
X121350000Y-55575000D03*
X121350000Y-48825000D03*
%TD*%
D37*
%TO.C,C5*%
X81730000Y-55300000D03*
X80770000Y-55300000D03*
%TD*%
D38*
%TO.C,FB1*%
X112750000Y-54937500D03*
X112750000Y-57062500D03*
%TD*%
D39*
%TO.C,RV1*%
X82450000Y-40200000D03*
X84990000Y-40200000D03*
X87530000Y-40200000D03*
%TD*%
D14*
%TO.C,C12*%
X91850000Y-52775000D03*
X91850000Y-51225000D03*
%TD*%
D27*
%TO.C,D4*%
X93800000Y-57000000D03*
X93800000Y-55425000D03*
%TD*%
D22*
%TO.C,R6*%
X95550000Y-56710000D03*
X95550000Y-55690000D03*
%TD*%
D40*
%TO.C,U1*%
X108450000Y-59312500D03*
X106550000Y-59312500D03*
X107500000Y-61187500D03*
%TD*%
D41*
%TO.C,R3*%
X115380000Y-58787500D03*
X116400000Y-58787500D03*
%TD*%
M02*
