%TF.GenerationSoftware,KiCad,Pcbnew,(6.0.2)*%
%TF.CreationDate,2024-03-31T20:48:55+02:00*%
%TF.ProjectId,STM32L4_Project,53544d33-324c-4345-9f50-726f6a656374,rev?*%
%TF.SameCoordinates,Original*%
%TF.FileFunction,Copper,L1,Top*%
%TF.FilePolarity,Positive*%
%FSLAX46Y46*%
G04 Gerber Fmt 4.6, Leading zero omitted, Abs format (unit mm)*
G04 Created by KiCad (PCBNEW (6.0.2)) date 2024-03-31 20:48:55*
%MOMM*%
%LPD*%
G01*
G04 APERTURE LIST*
G04 Aperture macros list*
%AMRoundRect*
0 Rectangle with rounded corners*
0 $1 Rounding radius*
0 $2 $3 $4 $5 $6 $7 $8 $9 X,Y pos of 4 corners*
0 Add a 4 corners polygon primitive as box body*
4,1,4,$2,$3,$4,$5,$6,$7,$8,$9,$2,$3,0*
0 Add four circle primitives for the rounded corners*
1,1,$1+$1,$2,$3*
1,1,$1+$1,$4,$5*
1,1,$1+$1,$6,$7*
1,1,$1+$1,$8,$9*
0 Add four rect primitives between the rounded corners*
20,1,$1+$1,$2,$3,$4,$5,0*
20,1,$1+$1,$4,$5,$6,$7,0*
20,1,$1+$1,$6,$7,$8,$9,0*
20,1,$1+$1,$8,$9,$2,$3,0*%
G04 Aperture macros list end*
%TA.AperFunction,SMDPad,CuDef*%
%ADD10RoundRect,0.225000X-0.225000X-0.250000X0.225000X-0.250000X0.225000X0.250000X-0.225000X0.250000X0*%
%TD*%
%TA.AperFunction,SMDPad,CuDef*%
%ADD11RoundRect,0.225000X0.250000X-0.225000X0.250000X0.225000X-0.250000X0.225000X-0.250000X-0.225000X0*%
%TD*%
%TA.AperFunction,ComponentPad*%
%ADD12R,1.700000X1.700000*%
%TD*%
%TA.AperFunction,ComponentPad*%
%ADD13O,1.700000X1.700000*%
%TD*%
%TA.AperFunction,SMDPad,CuDef*%
%ADD14RoundRect,0.135000X0.135000X0.185000X-0.135000X0.185000X-0.135000X-0.185000X0.135000X-0.185000X0*%
%TD*%
%TA.AperFunction,SMDPad,CuDef*%
%ADD15RoundRect,0.140000X-0.170000X0.140000X-0.170000X-0.140000X0.170000X-0.140000X0.170000X0.140000X0*%
%TD*%
%TA.AperFunction,SMDPad,CuDef*%
%ADD16RoundRect,0.218750X0.381250X-0.218750X0.381250X0.218750X-0.381250X0.218750X-0.381250X-0.218750X0*%
%TD*%
%TA.AperFunction,SMDPad,CuDef*%
%ADD17RoundRect,0.135000X-0.185000X0.135000X-0.185000X-0.135000X0.185000X-0.135000X0.185000X0.135000X0*%
%TD*%
%TA.AperFunction,SMDPad,CuDef*%
%ADD18RoundRect,0.135000X0.185000X-0.135000X0.185000X0.135000X-0.185000X0.135000X-0.185000X-0.135000X0*%
%TD*%
%TA.AperFunction,SMDPad,CuDef*%
%ADD19RoundRect,0.150000X-0.512500X-0.150000X0.512500X-0.150000X0.512500X0.150000X-0.512500X0.150000X0*%
%TD*%
%TA.AperFunction,SMDPad,CuDef*%
%ADD20RoundRect,0.218750X0.218750X0.256250X-0.218750X0.256250X-0.218750X-0.256250X0.218750X-0.256250X0*%
%TD*%
%TA.AperFunction,SMDPad,CuDef*%
%ADD21RoundRect,0.225000X-0.250000X0.225000X-0.250000X-0.225000X0.250000X-0.225000X0.250000X0.225000X0*%
%TD*%
%TA.AperFunction,SMDPad,CuDef*%
%ADD22RoundRect,0.140000X0.170000X-0.140000X0.170000X0.140000X-0.170000X0.140000X-0.170000X-0.140000X0*%
%TD*%
%TA.AperFunction,SMDPad,CuDef*%
%ADD23RoundRect,0.218750X0.256250X-0.218750X0.256250X0.218750X-0.256250X0.218750X-0.256250X-0.218750X0*%
%TD*%
%TA.AperFunction,SMDPad,CuDef*%
%ADD24RoundRect,0.062500X-0.375000X-0.062500X0.375000X-0.062500X0.375000X0.062500X-0.375000X0.062500X0*%
%TD*%
%TA.AperFunction,SMDPad,CuDef*%
%ADD25RoundRect,0.062500X-0.062500X-0.375000X0.062500X-0.375000X0.062500X0.375000X-0.062500X0.375000X0*%
%TD*%
%TA.AperFunction,SMDPad,CuDef*%
%ADD26R,3.450000X3.450000*%
%TD*%
%TA.AperFunction,SMDPad,CuDef*%
%ADD27RoundRect,0.150000X-0.825000X-0.150000X0.825000X-0.150000X0.825000X0.150000X-0.825000X0.150000X0*%
%TD*%
%TA.AperFunction,SMDPad,CuDef*%
%ADD28R,1.380000X0.450000*%
%TD*%
%TA.AperFunction,SMDPad,CuDef*%
%ADD29R,1.550000X1.425000*%
%TD*%
%TA.AperFunction,SMDPad,CuDef*%
%ADD30R,1.900000X1.000000*%
%TD*%
%TA.AperFunction,SMDPad,CuDef*%
%ADD31R,1.900000X1.800000*%
%TD*%
%TA.AperFunction,SMDPad,CuDef*%
%ADD32R,1.300000X1.650000*%
%TD*%
%TA.AperFunction,SMDPad,CuDef*%
%ADD33RoundRect,0.140000X0.140000X0.170000X-0.140000X0.170000X-0.140000X-0.170000X0.140000X-0.170000X0*%
%TD*%
%TA.AperFunction,SMDPad,CuDef*%
%ADD34RoundRect,0.218750X-0.381250X0.218750X-0.381250X-0.218750X0.381250X-0.218750X0.381250X0.218750X0*%
%TD*%
%TA.AperFunction,ComponentPad*%
%ADD35C,1.440000*%
%TD*%
%TA.AperFunction,SMDPad,CuDef*%
%ADD36RoundRect,0.150000X-0.150000X0.587500X-0.150000X-0.587500X0.150000X-0.587500X0.150000X0.587500X0*%
%TD*%
%TA.AperFunction,SMDPad,CuDef*%
%ADD37RoundRect,0.135000X-0.135000X-0.185000X0.135000X-0.185000X0.135000X0.185000X-0.135000X0.185000X0*%
%TD*%
%TA.AperFunction,ViaPad*%
%ADD38C,0.800000*%
%TD*%
%TA.AperFunction,Conductor*%
%ADD39C,0.300000*%
%TD*%
%TA.AperFunction,Conductor*%
%ADD40C,0.500000*%
%TD*%
%TA.AperFunction,Conductor*%
%ADD41C,0.200000*%
%TD*%
G04 APERTURE END LIST*
D10*
%TO.P,C2,1*%
%TO.N,Net-(C2-Pad1)*%
X75475000Y-49650000D03*
%TO.P,C2,2*%
%TO.N,Net-(C2-Pad2)*%
X77025000Y-49650000D03*
%TD*%
D11*
%TO.P,C4,1*%
%TO.N,Net-(C4-Pad1)*%
X81000000Y-52800000D03*
%TO.P,C4,2*%
%TO.N,GND*%
X81000000Y-51250000D03*
%TD*%
%TO.P,C7,1*%
%TO.N,+5V*%
X110750000Y-57000000D03*
%TO.P,C7,2*%
%TO.N,GND*%
X110750000Y-55450000D03*
%TD*%
%TO.P,C1,1*%
%TO.N,+5V*%
X110200000Y-60550000D03*
%TO.P,C1,2*%
%TO.N,GND*%
X110200000Y-59000000D03*
%TD*%
D12*
%TO.P,J4,1,Pin_1*%
%TO.N,+3V3*%
X113200000Y-39200000D03*
D13*
%TO.P,J4,2,Pin_2*%
%TO.N,SWDIO*%
X113200000Y-41740000D03*
%TO.P,J4,3,Pin_3*%
%TO.N,GND*%
X110660000Y-39200000D03*
%TO.P,J4,4,Pin_4*%
%TO.N,SWCLCK*%
X110660000Y-41740000D03*
%TO.P,J4,5,Pin_5*%
%TO.N,GND*%
X108120000Y-39200000D03*
%TO.P,J4,6,Pin_6*%
%TO.N,unconnected-(J4-Pad6)*%
X108120000Y-41740000D03*
%TO.P,J4,7,Pin_7*%
%TO.N,unconnected-(J4-Pad7)*%
X105580000Y-39200000D03*
%TO.P,J4,8,Pin_8*%
%TO.N,unconnected-(J4-Pad8)*%
X105580000Y-41740000D03*
%TO.P,J4,9,Pin_9*%
%TO.N,GND*%
X103040000Y-39200000D03*
%TO.P,J4,10,Pin_10*%
%TO.N,NRST*%
X103040000Y-41740000D03*
%TD*%
D14*
%TO.P,R4,1*%
%TO.N,GND*%
X98950000Y-47800000D03*
%TO.P,R4,2*%
%TO.N,Net-(R4-Pad2)*%
X97930000Y-47800000D03*
%TD*%
D15*
%TO.P,C9,1*%
%TO.N,+3V3*%
X94850000Y-49020000D03*
%TO.P,C9,2*%
%TO.N,GND*%
X94850000Y-49980000D03*
%TD*%
D16*
%TO.P,FB2,1*%
%TO.N,+3.3VA*%
X88600000Y-53062500D03*
%TO.P,FB2,2*%
%TO.N,+3V3*%
X88600000Y-50937500D03*
%TD*%
D17*
%TO.P,R5,1*%
%TO.N,GND*%
X101350000Y-55690000D03*
%TO.P,R5,2*%
%TO.N,Net-(D3-Pad1)*%
X101350000Y-56710000D03*
%TD*%
D18*
%TO.P,R1,1*%
%TO.N,GND*%
X83250000Y-56320000D03*
%TO.P,R1,2*%
%TO.N,Net-(C5-Pad1)*%
X83250000Y-55300000D03*
%TD*%
D19*
%TO.P,U3,1,I/O1*%
%TO.N,USB_D+*%
X108862500Y-50800000D03*
%TO.P,U3,2,GND*%
%TO.N,GND*%
X108862500Y-51750000D03*
%TO.P,U3,3,I/O2*%
%TO.N,USB_D-*%
X108862500Y-52700000D03*
%TO.P,U3,4,I/O2*%
%TO.N,USB_CONN_D-*%
X111137500Y-52700000D03*
%TO.P,U3,5,VBUS*%
%TO.N,VBUS*%
X111137500Y-51750000D03*
%TO.P,U3,6,I/O1*%
%TO.N,USB_CONN_D+*%
X111137500Y-50800000D03*
%TD*%
D15*
%TO.P,C10,1*%
%TO.N,+3V3*%
X102600000Y-54020000D03*
%TO.P,C10,2*%
%TO.N,GND*%
X102600000Y-54980000D03*
%TD*%
D20*
%TO.P,D2,1,K*%
%TO.N,Net-(D2-Pad1)*%
X116175000Y-60200000D03*
%TO.P,D2,2,A*%
%TO.N,+5V*%
X114600000Y-60200000D03*
%TD*%
%TO.P,D3,1,K*%
%TO.N,Net-(D3-Pad1)*%
X99937500Y-56200000D03*
%TO.P,D3,2,A*%
%TO.N,PA4*%
X98362500Y-56200000D03*
%TD*%
D21*
%TO.P,C3,1*%
%TO.N,+3V3*%
X104800000Y-59000000D03*
%TO.P,C3,2*%
%TO.N,GND*%
X104800000Y-60550000D03*
%TD*%
D22*
%TO.P,C11,1*%
%TO.N,+3.3VA*%
X93800000Y-52480000D03*
%TO.P,C11,2*%
%TO.N,GND*%
X93800000Y-51520000D03*
%TD*%
D15*
%TO.P,C13,1*%
%TO.N,NRST*%
X100600000Y-44120000D03*
%TO.P,C13,2*%
%TO.N,GND*%
X100600000Y-45080000D03*
%TD*%
D23*
%TO.P,D1,1,K*%
%TO.N,Net-(D1-Pad1)*%
X101400000Y-60587500D03*
%TO.P,D1,2,A*%
%TO.N,+3V3*%
X101400000Y-59012500D03*
%TD*%
D24*
%TO.P,U4,1,VDD*%
%TO.N,+3V3*%
X96312500Y-50100000D03*
%TO.P,U4,2,PC14*%
%TO.N,unconnected-(U4-Pad2)*%
X96312500Y-50600000D03*
%TO.P,U4,3,PC15*%
%TO.N,unconnected-(U4-Pad3)*%
X96312500Y-51100000D03*
%TO.P,U4,4,NRST*%
%TO.N,NRST*%
X96312500Y-51600000D03*
%TO.P,U4,5,VDDA*%
%TO.N,+3.3VA*%
X96312500Y-52100000D03*
%TO.P,U4,6,PA0*%
%TO.N,ADC_IN*%
X96312500Y-52600000D03*
%TO.P,U4,7,PA1*%
%TO.N,unconnected-(U4-Pad7)*%
X96312500Y-53100000D03*
%TO.P,U4,8,PA2*%
%TO.N,unconnected-(U4-Pad8)*%
X96312500Y-53600000D03*
D25*
%TO.P,U4,9,PA3*%
%TO.N,PA3*%
X97000000Y-54287500D03*
%TO.P,U4,10,PA4*%
%TO.N,PA4*%
X97500000Y-54287500D03*
%TO.P,U4,11,PA5*%
%TO.N,unconnected-(U4-Pad11)*%
X98000000Y-54287500D03*
%TO.P,U4,12,PA6*%
%TO.N,unconnected-(U4-Pad12)*%
X98500000Y-54287500D03*
%TO.P,U4,13,PA7*%
%TO.N,unconnected-(U4-Pad13)*%
X99000000Y-54287500D03*
%TO.P,U4,14,PB0*%
%TO.N,unconnected-(U4-Pad14)*%
X99500000Y-54287500D03*
%TO.P,U4,15,PB1*%
%TO.N,unconnected-(U4-Pad15)*%
X100000000Y-54287500D03*
%TO.P,U4,16,VSS*%
%TO.N,GND*%
X100500000Y-54287500D03*
D24*
%TO.P,U4,17,VDD*%
%TO.N,+3V3*%
X101187500Y-53600000D03*
%TO.P,U4,18,PA8*%
%TO.N,PA8*%
X101187500Y-53100000D03*
%TO.P,U4,19,PA9*%
%TO.N,unconnected-(U4-Pad19)*%
X101187500Y-52600000D03*
%TO.P,U4,20,PA10*%
%TO.N,unconnected-(U4-Pad20)*%
X101187500Y-52100000D03*
%TO.P,U4,21,PA11*%
%TO.N,USB_D-*%
X101187500Y-51600000D03*
%TO.P,U4,22,PA12*%
%TO.N,USB_D+*%
X101187500Y-51100000D03*
%TO.P,U4,23,PA13*%
%TO.N,SWDIO*%
X101187500Y-50600000D03*
%TO.P,U4,24,PA14*%
%TO.N,SWCLCK*%
X101187500Y-50100000D03*
D25*
%TO.P,U4,25,PA15*%
%TO.N,unconnected-(U4-Pad25)*%
X100500000Y-49412500D03*
%TO.P,U4,26,PB3*%
%TO.N,unconnected-(U4-Pad26)*%
X100000000Y-49412500D03*
%TO.P,U4,27,PB4*%
%TO.N,unconnected-(U4-Pad27)*%
X99500000Y-49412500D03*
%TO.P,U4,28,PB5*%
%TO.N,unconnected-(U4-Pad28)*%
X99000000Y-49412500D03*
%TO.P,U4,29,PB6*%
%TO.N,unconnected-(U4-Pad29)*%
X98500000Y-49412500D03*
%TO.P,U4,30,PB7*%
%TO.N,unconnected-(U4-Pad30)*%
X98000000Y-49412500D03*
%TO.P,U4,31,PH3*%
%TO.N,Net-(R4-Pad2)*%
X97500000Y-49412500D03*
%TO.P,U4,32,VSS*%
%TO.N,GND*%
X97000000Y-49412500D03*
D26*
%TO.P,U4,33,VSS*%
X98750000Y-51850000D03*
%TD*%
D12*
%TO.P,J2,1,Pin_1*%
%TO.N,PA8*%
X97825000Y-64600000D03*
D13*
%TO.P,J2,2,Pin_2*%
%TO.N,PA4*%
X95285000Y-64600000D03*
%TO.P,J2,3,Pin_3*%
%TO.N,PA3*%
X92745000Y-64600000D03*
%TO.P,J2,4,Pin_4*%
%TO.N,ADC_IN*%
X90205000Y-64600000D03*
%TO.P,J2,5,Pin_5*%
%TO.N,GND*%
X87665000Y-64600000D03*
%TO.P,J2,6,Pin_6*%
%TO.N,+3V3*%
X85125000Y-64600000D03*
%TO.P,J2,7,Pin_7*%
%TO.N,+5V*%
X82585000Y-64600000D03*
%TD*%
D12*
%TO.P,J3,1,Pin_1*%
%TO.N,+5V*%
X54200000Y-55480000D03*
D13*
%TO.P,J3,2,Pin_2*%
%TO.N,RADAR_OUT*%
X54200000Y-52940000D03*
%TO.P,J3,3,Pin_3*%
%TO.N,GND*%
X54200000Y-50400000D03*
%TD*%
D10*
%TO.P,C14,1*%
%TO.N,+3V3*%
X89575000Y-49000000D03*
%TO.P,C14,2*%
%TO.N,GND*%
X91125000Y-49000000D03*
%TD*%
%TO.P,C8,1*%
%TO.N,+3V3*%
X94975000Y-47600000D03*
%TO.P,C8,2*%
%TO.N,GND*%
X96525000Y-47600000D03*
%TD*%
D27*
%TO.P,U2,1,GAIN*%
%TO.N,Net-(C2-Pad1)*%
X73775000Y-51345000D03*
%TO.P,U2,2,-*%
%TO.N,GND*%
X73775000Y-52615000D03*
%TO.P,U2,3,+*%
%TO.N,Net-(RV1-Pad2)*%
X73775000Y-53885000D03*
%TO.P,U2,4,GND*%
%TO.N,GND*%
X73775000Y-55155000D03*
%TO.P,U2,5*%
%TO.N,ADC_IN*%
X78725000Y-55155000D03*
%TO.P,U2,6,V+*%
%TO.N,+5V*%
X78725000Y-53885000D03*
%TO.P,U2,7,BYPASS*%
%TO.N,Net-(C4-Pad1)*%
X78725000Y-52615000D03*
%TO.P,U2,8,GAIN*%
%TO.N,Net-(C2-Pad2)*%
X78725000Y-51345000D03*
%TD*%
D14*
%TO.P,R2,1*%
%TO.N,GND*%
X102110000Y-62000000D03*
%TO.P,R2,2*%
%TO.N,Net-(D1-Pad1)*%
X101090000Y-62000000D03*
%TD*%
D21*
%TO.P,C6,1*%
%TO.N,VBUS*%
X114750000Y-55450000D03*
%TO.P,C6,2*%
%TO.N,GND*%
X114750000Y-57000000D03*
%TD*%
D28*
%TO.P,J1,1,VBUS*%
%TO.N,VBUS*%
X118690000Y-53500000D03*
%TO.P,J1,2,D-*%
%TO.N,USB_CONN_D-*%
X118690000Y-52850000D03*
%TO.P,J1,3,D+*%
%TO.N,USB_CONN_D+*%
X118690000Y-52200000D03*
%TO.P,J1,4,ID*%
%TO.N,unconnected-(J1-Pad4)*%
X118690000Y-51550000D03*
%TO.P,J1,5,GND*%
%TO.N,GND*%
X118690000Y-50900000D03*
D29*
%TO.P,J1,6,Shield*%
%TO.N,unconnected-(J1-Pad6)*%
X118775000Y-54687500D03*
D30*
X121350000Y-50650000D03*
D29*
X118775000Y-49712500D03*
D31*
X121350000Y-53350000D03*
D32*
X121350000Y-55575000D03*
X121350000Y-48825000D03*
%TD*%
D33*
%TO.P,C5,1*%
%TO.N,Net-(C5-Pad1)*%
X81730000Y-55300000D03*
%TO.P,C5,2*%
%TO.N,ADC_IN*%
X80770000Y-55300000D03*
%TD*%
D34*
%TO.P,FB1,1*%
%TO.N,VBUS*%
X112750000Y-54937500D03*
%TO.P,FB1,2*%
%TO.N,+5V*%
X112750000Y-57062500D03*
%TD*%
D35*
%TO.P,RV1,1,1*%
%TO.N,RADAR_OUT*%
X82450000Y-40200000D03*
%TO.P,RV1,2,2*%
%TO.N,Net-(RV1-Pad2)*%
X84990000Y-40200000D03*
%TO.P,RV1,3,3*%
%TO.N,GND*%
X87530000Y-40200000D03*
%TD*%
D11*
%TO.P,C12,1*%
%TO.N,+3.3VA*%
X91850000Y-52775000D03*
%TO.P,C12,2*%
%TO.N,GND*%
X91850000Y-51225000D03*
%TD*%
D23*
%TO.P,D4,1,K*%
%TO.N,Net-(D4-Pad1)*%
X93800000Y-57000000D03*
%TO.P,D4,2,A*%
%TO.N,PA3*%
X93800000Y-55425000D03*
%TD*%
D18*
%TO.P,R6,1*%
%TO.N,GND*%
X95550000Y-56710000D03*
%TO.P,R6,2*%
%TO.N,Net-(D4-Pad1)*%
X95550000Y-55690000D03*
%TD*%
D36*
%TO.P,U1,1,GND*%
%TO.N,GND*%
X108450000Y-59312500D03*
%TO.P,U1,2,VO*%
%TO.N,+3V3*%
X106550000Y-59312500D03*
%TO.P,U1,3,VI*%
%TO.N,+5V*%
X107500000Y-61187500D03*
%TD*%
D37*
%TO.P,R3,1*%
%TO.N,GND*%
X115380000Y-58787500D03*
%TO.P,R3,2*%
%TO.N,Net-(D2-Pad1)*%
X116400000Y-58787500D03*
%TD*%
D38*
%TO.N,PA8*%
X104800688Y-57600688D03*
X98800000Y-58800000D03*
%TO.N,GND*%
X75894865Y-53503760D03*
X92400000Y-49800000D03*
X99800000Y-47000000D03*
X93400000Y-50600000D03*
X103350500Y-56200000D03*
X97000000Y-46200000D03*
X99800000Y-51600000D03*
X83400000Y-57200000D03*
X95600000Y-57600000D03*
X103200000Y-62600000D03*
X75800000Y-52400000D03*
X111600000Y-49400000D03*
X116600000Y-57400000D03*
X116400000Y-50600000D03*
X111400000Y-59200000D03*
X82400000Y-51000000D03*
X104600000Y-61800000D03*
X109400000Y-54800000D03*
%TO.N,+3V3*%
X85600000Y-55200000D03*
X85600000Y-52000000D03*
%TO.N,NRST*%
X96600000Y-42400000D03*
X95000000Y-51200000D03*
%TD*%
D39*
%TO.N,PA8*%
X105600000Y-56800000D02*
X105600000Y-53800000D01*
X104800688Y-57599312D02*
X105600000Y-56800000D01*
X104800688Y-57600688D02*
X104800688Y-57599312D01*
X98200000Y-58800000D02*
X98800000Y-58800000D01*
X97825000Y-59175000D02*
X98200000Y-58800000D01*
X97825000Y-64600000D02*
X97825000Y-59175000D01*
X105000000Y-53200000D02*
X105600000Y-53800000D01*
X103847850Y-53200000D02*
X105000000Y-53200000D01*
X103747850Y-53100000D02*
X103847850Y-53200000D01*
X101187500Y-53100000D02*
X103747850Y-53100000D01*
%TO.N,GND*%
X75600000Y-55000000D02*
X75600000Y-53798625D01*
X75445000Y-55155000D02*
X75600000Y-55000000D01*
X73775000Y-55155000D02*
X75445000Y-55155000D01*
X75600000Y-53798625D02*
X75894865Y-53503760D01*
D40*
X110200000Y-59000000D02*
X109887500Y-59312500D01*
X104800000Y-61600000D02*
X104600000Y-61800000D01*
X95550000Y-57550000D02*
X95600000Y-57600000D01*
X95550000Y-56710000D02*
X95550000Y-57550000D01*
X83250000Y-57050000D02*
X83400000Y-57200000D01*
X83250000Y-56320000D02*
X83250000Y-57050000D01*
D39*
%TO.N,RADAR_OUT*%
X61400000Y-49200000D02*
X61400000Y-41000000D01*
X61400000Y-41000000D02*
X62200000Y-40200000D01*
X57660000Y-52940000D02*
X61400000Y-49200000D01*
X62200000Y-40200000D02*
X62600000Y-40200000D01*
X54200000Y-52940000D02*
X57660000Y-52940000D01*
X62600000Y-40200000D02*
X82450000Y-40200000D01*
D40*
%TO.N,+5V*%
X54280000Y-55480000D02*
X54200000Y-55480000D01*
X80200000Y-67600000D02*
X66400000Y-67600000D01*
X66400000Y-67600000D02*
X54280000Y-55480000D01*
X78057151Y-54000000D02*
X76600000Y-54000000D01*
X112750000Y-65050000D02*
X110200000Y-67600000D01*
X80000000Y-67600000D02*
X80200000Y-67600000D01*
X78600000Y-64600000D02*
X77800000Y-65400000D01*
X82585000Y-64600000D02*
X78600000Y-64600000D01*
X112750000Y-59250000D02*
X112750000Y-65050000D01*
X112750000Y-58350000D02*
X114600000Y-60200000D01*
X112750000Y-57062500D02*
X110812500Y-57062500D01*
X110750000Y-57000000D02*
X109177151Y-57000000D01*
X112750000Y-59250000D02*
X111450000Y-60550000D01*
X78172151Y-53885000D02*
X78057151Y-54000000D01*
X112750000Y-58350000D02*
X112750000Y-59250000D01*
X76600000Y-54000000D02*
X76200000Y-54400000D01*
X110200000Y-67600000D02*
X80200000Y-67600000D01*
X107500000Y-58677151D02*
X107500000Y-61187500D01*
X76200000Y-54400000D02*
X76200000Y-63800000D01*
X112750000Y-57062500D02*
X112750000Y-58350000D01*
X78725000Y-53885000D02*
X78172151Y-53885000D01*
X77800000Y-65400000D02*
X80000000Y-67600000D01*
X109177151Y-57000000D02*
X107500000Y-58677151D01*
X111450000Y-60550000D02*
X110200000Y-60550000D01*
X76200000Y-63800000D02*
X77800000Y-65400000D01*
X110812500Y-57062500D02*
X110750000Y-57000000D01*
%TO.N,GND*%
X98750000Y-51850000D02*
X99550000Y-51850000D01*
D39*
X101350000Y-55137500D02*
X100500000Y-54287500D01*
X101350000Y-55690000D02*
X101350000Y-55137500D01*
X91850000Y-50350000D02*
X92400000Y-49800000D01*
X116200000Y-57000000D02*
X116600000Y-57400000D01*
D40*
X102840500Y-55690000D02*
X103350500Y-56200000D01*
D39*
X96525000Y-48325000D02*
X96525000Y-47600000D01*
D40*
X99600000Y-47800000D02*
X99800000Y-47600000D01*
X109450000Y-51750000D02*
X110000000Y-51200000D01*
X98950000Y-47800000D02*
X99600000Y-47800000D01*
X82150000Y-51250000D02*
X82400000Y-51000000D01*
D39*
X94020000Y-49980000D02*
X93400000Y-50600000D01*
D40*
X96525000Y-47275000D02*
X97000000Y-46800000D01*
D39*
X91850000Y-51225000D02*
X91850000Y-50350000D01*
D40*
X102110000Y-62000000D02*
X102600000Y-62000000D01*
X108862500Y-51750000D02*
X109450000Y-51750000D01*
X108450000Y-59312500D02*
X109887500Y-59312500D01*
X102600000Y-54980000D02*
X102600000Y-55449500D01*
X97000000Y-46800000D02*
X97000000Y-46200000D01*
X104800000Y-60550000D02*
X104800000Y-61600000D01*
X110000000Y-51200000D02*
X110000000Y-50000000D01*
X110050000Y-55450000D02*
X109400000Y-54800000D01*
D39*
X111200000Y-59000000D02*
X111400000Y-59200000D01*
D40*
X110600000Y-49400000D02*
X111600000Y-49400000D01*
D39*
X97000000Y-48800000D02*
X96525000Y-48325000D01*
D40*
X99550000Y-51850000D02*
X99800000Y-51600000D01*
X110200000Y-59000000D02*
X111200000Y-59000000D01*
X99800000Y-47600000D02*
X99800000Y-47000000D01*
X96525000Y-47600000D02*
X96525000Y-47275000D01*
D39*
X91600000Y-49000000D02*
X92400000Y-49800000D01*
D40*
X101350000Y-55690000D02*
X102840500Y-55690000D01*
D39*
X93800000Y-51520000D02*
X93800000Y-51000000D01*
X94850000Y-49980000D02*
X94020000Y-49980000D01*
D40*
X99800000Y-45880000D02*
X100600000Y-45080000D01*
D39*
X93800000Y-51000000D02*
X93400000Y-50600000D01*
X118690000Y-50900000D02*
X116700000Y-50900000D01*
X114750000Y-57000000D02*
X116200000Y-57000000D01*
X97000000Y-49412500D02*
X97000000Y-48800000D01*
X91125000Y-49000000D02*
X91600000Y-49000000D01*
D40*
X99800000Y-47000000D02*
X99800000Y-45880000D01*
X73775000Y-52615000D02*
X75585000Y-52615000D01*
D39*
X75585000Y-52615000D02*
X75800000Y-52400000D01*
X115380000Y-58787500D02*
X115380000Y-58620000D01*
D40*
X102600000Y-62000000D02*
X103200000Y-62600000D01*
D39*
X116700000Y-50900000D02*
X116400000Y-50600000D01*
D40*
X110750000Y-55450000D02*
X110050000Y-55450000D01*
D39*
X115380000Y-58620000D02*
X116600000Y-57400000D01*
D40*
X81000000Y-51250000D02*
X82150000Y-51250000D01*
X110000000Y-50000000D02*
X110600000Y-49400000D01*
D39*
%TO.N,Net-(C2-Pad1)*%
X74550000Y-49650000D02*
X75475000Y-49650000D01*
X73775000Y-51345000D02*
X73775000Y-50425000D01*
X73775000Y-50425000D02*
X74550000Y-49650000D01*
%TO.N,Net-(C2-Pad2)*%
X78800000Y-51270000D02*
X78725000Y-51345000D01*
X77025000Y-49650000D02*
X78450000Y-49650000D01*
X78450000Y-49650000D02*
X78800000Y-50000000D01*
X78800000Y-50000000D02*
X78800000Y-51270000D01*
D40*
%TO.N,+3V3*%
X106550000Y-59312500D02*
X105112500Y-59312500D01*
X113200000Y-39200000D02*
X113200000Y-38200000D01*
D39*
X102600000Y-54020000D02*
X102600000Y-54000000D01*
X96312500Y-50100000D02*
X95232500Y-49020000D01*
D40*
X85600000Y-60200000D02*
X86000000Y-60600000D01*
X86662500Y-50937500D02*
X85600000Y-52000000D01*
X103800000Y-57400000D02*
X104200000Y-57000000D01*
D39*
X94850000Y-47725000D02*
X94975000Y-47600000D01*
D40*
X87425480Y-66900480D02*
X85125000Y-64600000D01*
X88600000Y-50937500D02*
X88600000Y-49975000D01*
X99499520Y-66900480D02*
X87425480Y-66900480D01*
D39*
X94850000Y-49020000D02*
X94220000Y-49020000D01*
D40*
X86000000Y-63725000D02*
X85125000Y-64600000D01*
X101400000Y-59012500D02*
X101400000Y-58400000D01*
X104200000Y-54400000D02*
X103800000Y-54000000D01*
X88600000Y-49975000D02*
X89575000Y-49000000D01*
X85600000Y-55200000D02*
X85600000Y-58200000D01*
X94850000Y-49020000D02*
X94850000Y-47725000D01*
X101412500Y-59000000D02*
X101400000Y-59012500D01*
X99800000Y-66600000D02*
X99499520Y-66900480D01*
X86000000Y-60600000D02*
X86000000Y-63725000D01*
D39*
X93000000Y-47800000D02*
X90775000Y-47800000D01*
D40*
X104800000Y-59000000D02*
X101412500Y-59000000D01*
X112400000Y-37400000D02*
X97600000Y-37400000D01*
X113200000Y-38200000D02*
X112400000Y-37400000D01*
D39*
X102600000Y-54000000D02*
X102200000Y-53600000D01*
D40*
X103800000Y-54000000D02*
X102620000Y-54000000D01*
X97600000Y-37400000D02*
X94975000Y-40025000D01*
X94975000Y-40025000D02*
X94975000Y-47600000D01*
X105112500Y-59312500D02*
X104800000Y-59000000D01*
X104200000Y-57000000D02*
X104200000Y-54400000D01*
D39*
X90775000Y-47800000D02*
X89575000Y-49000000D01*
D40*
X102400000Y-57400000D02*
X103800000Y-57400000D01*
X101400000Y-59012500D02*
X100187500Y-59012500D01*
D39*
X102200000Y-53600000D02*
X101187500Y-53600000D01*
D40*
X100187500Y-59012500D02*
X99800000Y-59400000D01*
X102620000Y-54000000D02*
X102600000Y-54020000D01*
X88600000Y-50937500D02*
X86662500Y-50937500D01*
D39*
X95232500Y-49020000D02*
X94850000Y-49020000D01*
D40*
X101400000Y-58400000D02*
X102400000Y-57400000D01*
D39*
X94220000Y-49020000D02*
X93000000Y-47800000D01*
D40*
X99800000Y-59400000D02*
X99800000Y-66600000D01*
X85600000Y-58200000D02*
X85600000Y-60200000D01*
D39*
%TO.N,Net-(C4-Pad1)*%
X78725000Y-52615000D02*
X80815000Y-52615000D01*
X80815000Y-52615000D02*
X81000000Y-52800000D01*
%TO.N,Net-(C5-Pad1)*%
X81730000Y-55300000D02*
X83250000Y-55300000D01*
%TO.N,ADC_IN*%
X93000000Y-53400000D02*
X92200000Y-54200000D01*
X80625000Y-55155000D02*
X80770000Y-55300000D01*
X78725000Y-55155000D02*
X80625000Y-55155000D01*
X80770000Y-55257715D02*
X80770000Y-55300000D01*
X95400000Y-52600000D02*
X94600000Y-53400000D01*
X90205000Y-64600000D02*
X90205000Y-55405000D01*
X90205000Y-55405000D02*
X89000000Y-54200000D01*
X89000000Y-54200000D02*
X81827715Y-54200000D01*
X81827715Y-54200000D02*
X80770000Y-55257715D01*
X92200000Y-54200000D02*
X89000000Y-54200000D01*
X94600000Y-53400000D02*
X93000000Y-53400000D01*
X96312500Y-52600000D02*
X95400000Y-52600000D01*
%TO.N,VBUS*%
X118690000Y-53500000D02*
X116700000Y-53500000D01*
X116700000Y-53500000D02*
X110568573Y-53500000D01*
X110718573Y-51750000D02*
X111137500Y-51750000D01*
X114750000Y-55450000D02*
X113262500Y-55450000D01*
X116700000Y-53500000D02*
X114750000Y-55450000D01*
X113262500Y-55450000D02*
X112750000Y-54937500D01*
X110000000Y-52931427D02*
X110000000Y-52468573D01*
X110000000Y-52468573D02*
X110718573Y-51750000D01*
X110568573Y-53500000D02*
X110000000Y-52931427D01*
%TO.N,+3.3VA*%
X88887500Y-52775000D02*
X88600000Y-53062500D01*
X92145000Y-52480000D02*
X91850000Y-52775000D01*
X91850000Y-52775000D02*
X88887500Y-52775000D01*
X95193572Y-52100000D02*
X96312500Y-52100000D01*
X93800000Y-52480000D02*
X94813572Y-52480000D01*
X93800000Y-52480000D02*
X92145000Y-52480000D01*
X94813572Y-52480000D02*
X95193572Y-52100000D01*
%TO.N,NRST*%
X95400000Y-51600000D02*
X95000000Y-51200000D01*
X100600000Y-44120000D02*
X100660000Y-44120000D01*
X100660000Y-44120000D02*
X103040000Y-41740000D01*
X96312500Y-51600000D02*
X95400000Y-51600000D01*
X97260000Y-41740000D02*
X103040000Y-41740000D01*
X96600000Y-42400000D02*
X97260000Y-41740000D01*
D40*
%TO.N,Net-(D1-Pad1)*%
X101090000Y-62000000D02*
X101090000Y-60897500D01*
X101090000Y-60897500D02*
X101400000Y-60587500D01*
%TO.N,Net-(D2-Pad1)*%
X116175000Y-60200000D02*
X116175000Y-59012500D01*
X116175000Y-59012500D02*
X116400000Y-58787500D01*
D39*
%TO.N,Net-(D3-Pad1)*%
X100447500Y-56710000D02*
X99937500Y-56200000D01*
X101350000Y-56710000D02*
X100447500Y-56710000D01*
%TO.N,PA4*%
X97500000Y-55337500D02*
X98362500Y-56200000D01*
X95285000Y-64600000D02*
X95285000Y-59277500D01*
X97500000Y-54287500D02*
X97500000Y-55337500D01*
X95285000Y-59277500D02*
X98362500Y-56200000D01*
%TO.N,Net-(D4-Pad1)*%
X94240000Y-57000000D02*
X95550000Y-55690000D01*
X93800000Y-57000000D02*
X94240000Y-57000000D01*
%TO.N,PA3*%
X92000000Y-59400000D02*
X92000000Y-57225000D01*
X92745000Y-64600000D02*
X92745000Y-60145000D01*
X92000000Y-57225000D02*
X93800000Y-55425000D01*
X92745000Y-60145000D02*
X92000000Y-59400000D01*
X93800000Y-55425000D02*
X94937500Y-54287500D01*
X94937500Y-54287500D02*
X97000000Y-54287500D01*
D41*
%TO.N,USB_CONN_D-*%
X111487980Y-52349520D02*
X111137500Y-52700000D01*
X118690000Y-52850000D02*
X117654999Y-52850000D01*
X117654999Y-52850000D02*
X117554999Y-52750000D01*
X116231800Y-52750000D02*
X115456801Y-51975001D01*
X111836197Y-52349520D02*
X111487980Y-52349520D01*
X117554999Y-52750000D02*
X116231800Y-52750000D01*
X115456801Y-51975001D02*
X112210716Y-51975001D01*
X112210716Y-51975001D02*
X111836197Y-52349520D01*
%TO.N,USB_CONN_D+*%
X111487980Y-51150480D02*
X111137500Y-50800000D01*
X115643199Y-51524999D02*
X112210716Y-51524999D01*
X118690000Y-52200000D02*
X117654999Y-52200000D01*
X116418200Y-52300000D02*
X115643199Y-51524999D01*
X117554999Y-52300000D02*
X116418200Y-52300000D01*
X112210716Y-51524999D02*
X111836197Y-51150480D01*
X111836197Y-51150480D02*
X111487980Y-51150480D01*
X117654999Y-52200000D02*
X117554999Y-52300000D01*
D39*
%TO.N,unconnected-(J1-Pad6)*%
X121350000Y-48825000D02*
X119662500Y-48825000D01*
X121350000Y-50650000D02*
X121350000Y-48825000D01*
X119662500Y-48825000D02*
X118775000Y-49712500D01*
X121350000Y-53350000D02*
X121350000Y-50650000D01*
X121350000Y-55575000D02*
X121350000Y-53350000D01*
X118775000Y-54687500D02*
X120462500Y-54687500D01*
X120462500Y-54687500D02*
X121350000Y-55575000D01*
%TO.N,SWDIO*%
X104340000Y-50600000D02*
X113200000Y-41740000D01*
X101187500Y-50600000D02*
X104340000Y-50600000D01*
%TO.N,SWCLCK*%
X101187500Y-50100000D02*
X102300000Y-50100000D01*
X102300000Y-50100000D02*
X110660000Y-41740000D01*
%TO.N,Net-(R4-Pad2)*%
X97500000Y-48892316D02*
X97792316Y-48600000D01*
X97930000Y-48470000D02*
X97930000Y-47800000D01*
X97500000Y-49412500D02*
X97500000Y-48892316D01*
X97792316Y-48600000D02*
X97800000Y-48600000D01*
X97800000Y-48600000D02*
X97930000Y-48470000D01*
%TO.N,Net-(RV1-Pad2)*%
X72000000Y-45200000D02*
X82400000Y-45200000D01*
X70800000Y-46400000D02*
X72000000Y-45200000D01*
X73690000Y-53800000D02*
X71000000Y-53800000D01*
X70800000Y-53600000D02*
X70800000Y-46400000D01*
X84990000Y-42610000D02*
X84990000Y-40200000D01*
X73775000Y-53885000D02*
X73690000Y-53800000D01*
X71000000Y-53800000D02*
X70800000Y-53600000D01*
X82400000Y-45200000D02*
X84990000Y-42610000D01*
D41*
%TO.N,USB_D+*%
X101187500Y-51100000D02*
X101212499Y-51124999D01*
X103043199Y-51524999D02*
X107789284Y-51524999D01*
X108512020Y-51150480D02*
X108862500Y-50800000D01*
X101212499Y-51124999D02*
X102643199Y-51124999D01*
X108163803Y-51150480D02*
X108512020Y-51150480D01*
X102643199Y-51124999D02*
X103043199Y-51524999D01*
X107789284Y-51524999D02*
X108163803Y-51150480D01*
%TO.N,USB_D-*%
X108163803Y-52349520D02*
X108512020Y-52349520D01*
X102456801Y-51575001D02*
X102856801Y-51975001D01*
X101187500Y-51600000D02*
X101212499Y-51575001D01*
X102856801Y-51975001D02*
X107789284Y-51975001D01*
X101212499Y-51575001D02*
X102456801Y-51575001D01*
X107789284Y-51975001D02*
X108163803Y-52349520D01*
X108512020Y-52349520D02*
X108862500Y-52700000D01*
%TD*%
M02*
