M48
; DRILL file {KiCad (6.0.2)} date Sun Mar 31 20:48:55 2024
; FORMAT={-:-/ absolute / inch / decimal}
; #@! TF.CreationDate,2024-03-31T20:48:55+02:00
; #@! TF.GenerationSoftware,Kicad,Pcbnew,(6.0.2)
; #@! TF.FileFunction,Plated,1,2,PTH
FMAT,2
INCH
; #@! TA.AperFunction,Plated,PTH,ViaDrill
T1C0.0157
; #@! TA.AperFunction,Plated,PTH,ComponentDrill
T2C0.0315
; #@! TA.AperFunction,Plated,PTH,ComponentDrill
T3C0.0394
%
G90
G05
T1
X2.9843Y-2.063
X2.988Y-2.1064
X3.2441Y-2.0079
X3.2835Y-2.252
X3.3701Y-2.0472
X3.3701Y-2.1732
X3.6378Y-1.9606
X3.6772Y-1.9921
X3.7402Y-2.0157
X3.7638Y-2.2677
X3.8031Y-1.6693
X3.8189Y-1.8189
X3.8898Y-2.315
X3.9291Y-1.8504
X3.9291Y-2.0315
X4.063Y-2.4646
X4.0689Y-2.2126
X4.1181Y-2.4331
X4.126Y-2.2677
X4.3071Y-2.1575
X4.3858Y-2.3307
X4.3937Y-1.9449
X4.5827Y-1.9921
X4.5906Y-2.2598
T2
X3.2461Y-1.5827
X3.3461Y-1.5827
X3.4461Y-1.5827
T3
X2.1339Y-1.9843
X2.1339Y-2.0843
X2.1339Y-2.1843
X3.2514Y-2.5433
X3.3514Y-2.5433
X3.4514Y-2.5433
X3.5514Y-2.5433
X3.6514Y-2.5433
X3.7514Y-2.5433
X3.8514Y-2.5433
X4.0567Y-1.5433
X4.0567Y-1.6433
X4.1567Y-1.5433
X4.1567Y-1.6433
X4.2567Y-1.5433
X4.2567Y-1.6433
X4.3567Y-1.5433
X4.3567Y-1.6433
X4.4567Y-1.5433
X4.4567Y-1.6433
T0
M30
